<svg width="199" height="209" viewBox="0 0 199 209" fill="none" xmlns="http://www.w3.org/2000/svg">
<mask id="mask0_15_42" style="mask-type:luminance" maskUnits="userSpaceOnUse" x="2" y="0" width="189" height="151">
<path d="M190.5 0.550003H2V150.98H190.5V0.550003Z" fill="white"/>
</mask>
<g mask="url(#mask0_15_42)">
<path d="M88.57 113.76L10 80.64L10.5 75.35L87.83 108.65L90.83 106.21C105.46 97.49 117.64 99.8 122.07 101.14C135.47 81.91 161.26 78.55 162.32 78.48L161.39 84.16C161.15 84.16 136.76 86.28 124.84 104.97L123.84 106.57L122.11 105.81C121.59 105.59 109.23 100.48 93.26 109.92L88.57 113.76Z" fill="#009E60"/>
<path d="M140.33 71.53L147.14 74.39L142.43 76.36L126.35 79.7L112.15 85.2L97.03 95.1L83.38 100.57L79.21 95.92L78.11 90.62L71.54 90.52L65.05 92.65L63.15 89.02L58.99 86.13L58.3 80.37L52.22 82.44L52.91 78.89L54.96 78.05L50.45 76.63L45.45 78.05L41.65 77.06L38.89 77.14L35.27 75.08L35.64 70.49L41.46 67.23L49.78 66.37L49.15 63.09L54.1 60.12L62.47 58.96L68.5 61.25L69.99 55.83L71.97 55.3L74.48 56.51L76.14 56.05L76.97 52.36L81.04 50.77L89.91 51.38L106.75 57.05L109.74 62.51L112.78 64L127.43 69.45L140.33 71.53Z" fill="#F38030"/>
<path d="M140.33 71.53L147.14 74.39L142.43 76.36L126.35 79.7L112.15 85.2L97.03 95.1L83.38 100.57L79.21 95.92L78.11 90.62L71.54 90.52L65.05 92.65L63.15 89.02L58.99 86.13L58.3 80.37L52.22 82.44L52.91 78.89L54.96 78.05L50.45 76.63L45.45 78.05L41.65 77.06L38.89 77.14L35.27 75.08L35.64 70.49L41.46 67.23L49.78 66.37L49.15 63.09L54.1 60.12L62.47 58.96L68.5 61.25L69.99 55.83L71.97 55.3L74.48 56.51L76.14 56.05L76.97 52.36L81.04 50.77L89.91 51.38L106.75 57.05L109.74 62.51L112.78 64L127.43 69.45L140.33 71.53Z" stroke="white" stroke-width="2.12" stroke-miterlimit="10"/>
</g>
<mask id="mask1_15_42" style="mask-type:luminance" maskUnits="userSpaceOnUse" x="35" y="50" width="113" height="51">
<path d="M76.97 52.36L76.14 56.05L74.48 56.51L71.97 55.31L69.99 55.84L68.5 61.26L62.47 58.97L54.11 60.12L49.15 63.1L49.78 66.38L41.46 67.23L35.65 70.49L35.27 75.08L38.89 77.14L41.66 77.07L45.45 78.06L50.46 76.63L54.97 78.06L52.91 78.9L52.22 82.45L58.3 80.37L58.99 86.13L63.16 89.03L65.05 92.66L71.54 90.52L78.11 90.63L79.21 95.92L83.38 100.57L97.03 95.11L112.15 85.2L126.35 79.71L142.43 76.36L147.15 74.39L140.33 71.53L127.43 69.45L112.78 64L109.74 62.51L106.75 57.05L89.91 51.39L81.04 50.77L76.97 52.36Z" fill="white"/>
</mask>
<g mask="url(#mask1_15_42)">
<path d="M43.1702 59.01L117.39 93.42" stroke="white" stroke-width="0.7" stroke-miterlimit="10"/>
<path d="M48.98 53.21L123.19 87.62" stroke="white" stroke-width="0.7" stroke-miterlimit="10"/>
<path d="M61.96 50.77L136.18 85.18" stroke="white" stroke-width="0.7" stroke-miterlimit="10"/>
<path d="M67.3701 45.36L141.59 79.76" stroke="white" stroke-width="0.7" stroke-miterlimit="10"/>
<path d="M39.1401 66.16L113.36 100.57" stroke="white" stroke-width="0.7" stroke-miterlimit="10"/>
<path d="M24.8 67.78L99.01 102.18" stroke="white" stroke-width="0.7" stroke-miterlimit="10"/>
<path d="M27.4102 78.51L99.7702 47.6" stroke="white" stroke-width="0.7" stroke-miterlimit="10"/>
<path d="M44.6799 79.35L117.04 48.43" stroke="white" stroke-width="0.7" stroke-miterlimit="10"/>
<path d="M50.1301 86.01L122.5 55.09" stroke="white" stroke-width="0.7" stroke-miterlimit="10"/>
<path d="M63.27 90.22L135.63 59.3" stroke="white" stroke-width="0.7" stroke-miterlimit="10"/>
<path d="M71.3201 95.87L143.69 64.95" stroke="white" stroke-width="0.7" stroke-miterlimit="10"/>
</g>
<path d="M140.33 71.53L147.14 74.39L142.43 76.36L126.35 79.7L112.15 85.2L97.03 95.1L83.38 100.57L79.21 95.92L78.11 90.62L71.54 90.52L65.05 92.65L63.15 89.02L58.99 86.13L58.3 80.37L52.22 82.44L52.91 78.89L54.96 78.05L50.45 76.63L45.45 78.05L41.65 77.06L38.89 77.14L35.27 75.08L35.64 70.49L41.46 67.23L49.78 66.37L49.15 63.09L54.1 60.12L62.47 58.96L68.5 61.25L69.99 55.83L71.97 55.3L74.48 56.51L76.14 56.05L76.97 52.36L81.04 50.77L89.91 51.38L106.75 57.05L109.74 62.51L112.78 64L127.43 69.45L140.33 71.53Z" stroke="white" stroke-width="2.12" stroke-miterlimit="10"/>
<path d="M128.43 72.68L127.06 71.23C126.55 70.68 114.44 57.7 115.21 46.73C115.309 44.9952 115.782 43.3022 116.594 41.7663C117.407 40.2305 118.541 38.8879 119.92 37.83C122.374 35.8573 125.468 34.8567 128.613 35.019C131.757 35.1813 134.732 36.4951 136.97 38.71C139.5 41.31 146.45 51.32 129.72 71.15L128.43 72.68ZM128.01 38.55C125.876 38.5489 123.805 39.2756 122.14 40.61C121.147 41.3599 120.329 42.3174 119.743 43.4158C119.158 44.5143 118.819 45.7272 118.75 46.97C118.23 54.42 125.28 63.66 128.3 67.26C138.73 54.19 138.38 45.26 134.41 41.2C133.575 40.3525 132.578 39.6812 131.479 39.226C130.379 38.7708 129.2 38.5409 128.01 38.55Z" fill="#009E60"/>
<path d="M131.31 48.98C131.312 49.6608 131.112 50.3268 130.735 50.8939C130.358 51.4609 129.822 51.9034 129.193 52.1653C128.565 52.4272 127.873 52.4967 127.205 52.3651C126.537 52.2335 125.923 51.9067 125.441 51.426C124.959 50.9453 124.63 50.3323 124.497 49.6648C124.363 48.9972 124.431 48.305 124.691 47.6759C124.951 47.0467 125.392 46.5089 125.958 46.1304C126.524 45.752 127.189 45.55 127.87 45.55C128.781 45.55 129.654 45.911 130.299 46.554C130.944 47.197 131.307 48.0694 131.31 48.98Z" fill="#009E60"/>
<path d="M28.1027 205.46H26.9025L30.374 196.005H31.5559L35.0275 205.46H33.8272L31.0019 197.501H30.928L28.1027 205.46ZM28.5459 201.767H33.384V202.782H28.5459V201.767ZM39.2146 208.267C38.6883 208.267 38.2359 208.199 37.8574 208.064C37.4788 207.931 37.1633 207.756 36.911 207.537C36.6617 207.322 36.4632 207.091 36.3155 206.845L37.1833 206.236C37.2818 206.365 37.4065 206.513 37.5573 206.679C37.7081 206.848 37.9143 206.994 38.1759 207.117C38.4406 207.243 38.7868 207.307 39.2146 207.307C39.787 207.307 40.2595 207.168 40.6319 206.891C41.0043 206.614 41.1905 206.18 41.1905 205.589V204.149H41.0981C41.0181 204.278 40.9042 204.438 40.7565 204.629C40.6119 204.817 40.4026 204.984 40.1287 205.132C39.8578 205.277 39.4916 205.349 39.0299 205.349C38.4575 205.349 37.9435 205.214 37.488 204.943C37.0356 204.672 36.6771 204.278 36.4124 203.761C36.1508 203.244 36.02 202.616 36.02 201.878C36.02 201.151 36.1477 200.519 36.4032 199.98C36.6586 199.439 37.0141 199.02 37.4696 198.725C37.9251 198.426 38.4513 198.277 39.0484 198.277C39.5101 198.277 39.8763 198.354 40.1471 198.508C40.421 198.658 40.6303 198.831 40.775 199.025C40.9227 199.215 41.0366 199.372 41.1166 199.496H41.2274V198.369H42.2799V205.663C42.2799 206.272 42.1414 206.768 41.8645 207.15C41.5905 207.534 41.2212 207.816 40.7565 207.994C40.2949 208.176 39.7809 208.267 39.2146 208.267ZM39.1777 204.371C39.6147 204.371 39.984 204.27 40.2856 204.07C40.5872 203.87 40.8165 203.583 40.9735 203.207C41.1304 202.832 41.2089 202.382 41.2089 201.859C41.2089 201.348 41.132 200.897 40.9781 200.507C40.8242 200.116 40.5965 199.809 40.2949 199.588C39.9932 199.366 39.6208 199.255 39.1777 199.255C38.716 199.255 38.3313 199.372 38.0235 199.606C37.7189 199.84 37.4896 200.154 37.3357 200.548C37.1849 200.942 37.1095 201.379 37.1095 201.859C37.1095 202.352 37.1864 202.787 37.3403 203.166C37.4973 203.541 37.7281 203.837 38.0328 204.052C38.3405 204.264 38.7222 204.371 39.1777 204.371ZM47.2473 205.608C46.564 205.608 45.9747 205.457 45.4792 205.155C44.9867 204.851 44.6066 204.426 44.3389 203.881C44.0742 203.333 43.9419 202.696 43.9419 201.97C43.9419 201.244 44.0742 200.603 44.3389 200.049C44.6066 199.492 44.979 199.058 45.4561 198.748C45.9362 198.434 46.4963 198.277 47.1365 198.277C47.5058 198.277 47.8705 198.338 48.2306 198.461C48.5907 198.585 48.9184 198.785 49.2139 199.062C49.5093 199.335 49.7448 199.699 49.9202 200.151C50.0956 200.603 50.1833 201.161 50.1833 201.822V202.284H44.7174V201.342H49.0754C49.0754 200.942 48.9954 200.585 48.8353 200.271C48.6784 199.957 48.4537 199.709 48.1613 199.528C47.872 199.346 47.5304 199.255 47.1365 199.255C46.7025 199.255 46.3271 199.363 46.0101 199.579C45.6961 199.791 45.4545 200.068 45.2853 200.41C45.116 200.751 45.0314 201.117 45.0314 201.508V202.136C45.0314 202.672 45.1237 203.126 45.3083 203.498C45.4961 203.867 45.7561 204.149 46.0885 204.343C46.4209 204.534 46.8072 204.629 47.2473 204.629C47.5335 204.629 47.792 204.589 48.0228 204.509C48.2567 204.426 48.4583 204.303 48.6276 204.14C48.7969 203.973 48.9277 203.767 49.02 203.521L50.0726 203.817C49.9618 204.174 49.7756 204.487 49.514 204.758C49.2524 205.026 48.9292 205.235 48.5445 205.386C48.1598 205.534 47.7274 205.608 47.2473 205.608ZM52.9302 201.194V205.46H51.8407V198.369H52.8932V199.477H52.9856C53.1517 199.117 53.4041 198.828 53.7427 198.609C54.0812 198.388 54.5182 198.277 55.0537 198.277C55.5338 198.277 55.9539 198.375 56.314 198.572C56.6741 198.766 56.9542 199.062 57.1542 199.459C57.3543 199.853 57.4543 200.351 57.4543 200.954V205.46H56.3648V201.028C56.3648 200.471 56.2202 200.037 55.9309 199.726C55.6416 199.412 55.2445 199.255 54.7398 199.255C54.392 199.255 54.0812 199.331 53.8073 199.482C53.5365 199.632 53.3226 199.853 53.1656 200.142C53.0086 200.431 52.9302 200.782 52.9302 201.194ZM62.3258 205.608C61.6611 205.608 61.0886 205.451 60.6085 205.137C60.1284 204.823 59.7591 204.391 59.5006 203.84C59.242 203.289 59.1128 202.659 59.1128 201.951C59.1128 201.231 59.2451 200.596 59.5098 200.045C59.7775 199.491 60.1499 199.058 60.627 198.748C61.1071 198.434 61.6672 198.277 62.3074 198.277C62.806 198.277 63.2553 198.369 63.6554 198.554C64.0555 198.738 64.3832 198.997 64.6387 199.329C64.8941 199.662 65.0526 200.049 65.1142 200.493H64.0247C63.9416 200.17 63.7569 199.883 63.4707 199.634C63.1876 199.382 62.806 199.255 62.3258 199.255C61.9011 199.255 61.5287 199.366 61.2087 199.588C60.8917 199.806 60.6439 200.116 60.4654 200.516C60.29 200.913 60.2023 201.379 60.2023 201.915C60.2023 202.462 60.2884 202.939 60.4608 203.346C60.6362 203.752 60.8824 204.067 61.1994 204.292C61.5195 204.517 61.895 204.629 62.3258 204.629C62.609 204.629 62.866 204.58 63.0968 204.481C63.3276 204.383 63.523 204.241 63.6831 204.057C63.8431 203.872 63.957 203.65 64.0247 203.392H65.1142C65.0526 203.81 64.9003 204.187 64.6572 204.523C64.4171 204.855 64.0986 205.12 63.7015 205.317C63.3076 205.511 62.849 205.608 62.3258 205.608ZM69.6799 205.608C68.9966 205.608 68.4073 205.457 67.9118 205.155C67.4194 204.851 67.0393 204.426 66.7715 203.881C66.5068 203.333 66.3745 202.696 66.3745 201.97C66.3745 201.244 66.5068 200.603 66.7715 200.049C67.0393 199.492 67.4117 199.058 67.8887 198.748C68.3688 198.434 68.9289 198.277 69.5691 198.277C69.9384 198.277 70.3031 198.338 70.6632 198.461C71.0233 198.585 71.3511 198.785 71.6465 199.062C71.942 199.335 72.1774 199.699 72.3528 200.151C72.5283 200.603 72.616 201.161 72.616 201.822V202.284H67.1501V201.342H71.508C71.508 200.942 71.428 200.585 71.268 200.271C71.111 199.957 70.8863 199.709 70.594 199.528C70.3047 199.346 69.963 199.255 69.5691 199.255C69.1351 199.255 68.7597 199.363 68.4427 199.579C68.1288 199.791 67.8872 200.068 67.7179 200.41C67.5486 200.751 67.464 201.117 67.464 201.508V202.136C67.464 202.672 67.5563 203.126 67.741 203.498C67.9287 203.867 68.1888 204.149 68.5212 204.343C68.8535 204.534 69.2398 204.629 69.6799 204.629C69.9661 204.629 70.2246 204.589 70.4555 204.509C70.6894 204.426 70.8909 204.303 71.0602 204.14C71.2295 203.973 71.3603 203.767 71.4526 203.521L72.5052 203.817C72.3944 204.174 72.2082 204.487 71.9466 204.758C71.685 205.026 71.3618 205.235 70.9771 205.386C70.5924 205.534 70.16 205.608 69.6799 205.608ZM78.0773 205.46V196.005H83.7463V197.021H79.2221V200.216H83.3216V201.231H79.2221V205.46H78.0773ZM87.9196 205.608C87.2794 205.608 86.7178 205.455 86.2346 205.151C85.7545 204.846 85.379 204.42 85.1082 203.872C84.8404 203.324 84.7065 202.684 84.7065 201.951C84.7065 201.213 84.8404 200.568 85.1082 200.017C85.379 199.466 85.7545 199.038 86.2346 198.734C86.7178 198.429 87.2794 198.277 87.9196 198.277C88.5597 198.277 89.1199 198.429 89.6 198.734C90.0832 199.038 90.4587 199.466 90.7264 200.017C90.9972 200.568 91.1327 201.213 91.1327 201.951C91.1327 202.684 90.9972 203.324 90.7264 203.872C90.4587 204.42 90.0832 204.846 89.6 205.151C89.1199 205.455 88.5597 205.608 87.9196 205.608ZM87.9196 204.629C88.4059 204.629 88.806 204.504 89.1199 204.255C89.4338 204.006 89.6662 203.678 89.817 203.272C89.9678 202.866 90.0432 202.425 90.0432 201.951C90.0432 201.478 89.9678 201.036 89.817 200.627C89.6662 200.217 89.4338 199.886 89.1199 199.634C88.806 199.382 88.4059 199.255 87.9196 199.255C87.4333 199.255 87.0332 199.382 86.7193 199.634C86.4054 199.886 86.173 200.217 86.0222 200.627C85.8714 201.036 85.796 201.478 85.796 201.951C85.796 202.425 85.8714 202.866 86.0222 203.272C86.173 203.678 86.4054 204.006 86.7193 204.255C87.0332 204.504 87.4333 204.629 87.9196 204.629ZM93.8852 201.194V205.46H92.7957V198.369H93.8483V199.477H93.9406C94.1068 199.117 94.3592 198.828 94.6977 198.609C95.0363 198.388 95.4733 198.277 96.0088 198.277C96.4889 198.277 96.909 198.375 97.2691 198.572C97.6292 198.766 97.9093 199.062 98.1093 199.459C98.3094 199.853 98.4094 200.351 98.4094 200.954V205.46H97.3199V201.028C97.3199 200.471 97.1752 200.037 96.8859 199.726C96.5966 199.412 96.1996 199.255 95.6949 199.255C95.3471 199.255 95.0363 199.331 94.7624 199.482C94.4915 199.632 94.2776 199.853 94.1207 200.142C93.9637 200.431 93.8852 200.782 93.8852 201.194ZM103.281 205.608C102.616 205.608 102.044 205.451 101.564 205.137C101.083 204.823 100.714 204.391 100.456 203.84C100.197 203.289 100.068 202.659 100.068 201.951C100.068 201.231 100.2 200.596 100.465 200.045C100.733 199.491 101.105 199.058 101.582 198.748C102.062 198.434 102.622 198.277 103.262 198.277C103.761 198.277 104.21 198.369 104.61 198.554C105.011 198.738 105.338 198.997 105.594 199.329C105.849 199.662 106.008 200.049 106.069 200.493H104.98C104.897 200.17 104.712 199.883 104.426 199.634C104.143 199.382 103.761 199.255 103.281 199.255C102.856 199.255 102.484 199.366 102.164 199.588C101.847 199.806 101.599 200.116 101.42 200.516C101.245 200.913 101.157 201.379 101.157 201.915C101.157 202.462 101.244 202.939 101.416 203.346C101.591 203.752 101.837 204.067 102.154 204.292C102.475 204.517 102.85 204.629 103.281 204.629C103.564 204.629 103.821 204.58 104.052 204.481C104.283 204.383 104.478 204.241 104.638 204.057C104.798 203.872 104.912 203.65 104.98 203.392H106.069C106.008 203.81 105.855 204.187 105.612 204.523C105.372 204.855 105.054 205.12 104.657 205.317C104.263 205.511 103.804 205.608 103.281 205.608ZM107.662 205.46V198.369H108.751V205.46H107.662ZM108.216 197.187C108.004 197.187 107.82 197.115 107.667 196.97C107.516 196.826 107.44 196.652 107.44 196.449C107.44 196.246 107.516 196.072 107.667 195.927C107.82 195.782 108.004 195.71 108.216 195.71C108.428 195.71 108.61 195.782 108.761 195.927C108.915 196.072 108.991 196.246 108.991 196.449C108.991 196.652 108.915 196.826 108.761 196.97C108.61 197.115 108.428 197.187 108.216 197.187ZM113.72 205.608C113.037 205.608 112.447 205.457 111.952 205.155C111.459 204.851 111.079 204.426 110.812 203.881C110.547 203.333 110.415 202.696 110.415 201.97C110.415 201.244 110.547 200.603 110.812 200.049C111.079 199.492 111.452 199.058 111.929 198.748C112.409 198.434 112.969 198.277 113.609 198.277C113.978 198.277 114.343 198.338 114.703 198.461C115.063 198.585 115.391 198.785 115.687 199.062C115.982 199.335 116.217 199.699 116.393 200.151C116.568 200.603 116.656 201.161 116.656 201.822V202.284H111.19V201.342H115.548C115.548 200.942 115.468 200.585 115.308 200.271C115.151 199.957 114.926 199.709 114.634 199.528C114.345 199.346 114.003 199.255 113.609 199.255C113.175 199.255 112.8 199.363 112.483 199.579C112.169 199.791 111.927 200.068 111.758 200.41C111.589 200.751 111.504 201.117 111.504 201.508V202.136C111.504 202.672 111.596 203.126 111.781 203.498C111.969 203.867 112.229 204.149 112.561 204.343C112.894 204.534 113.28 204.629 113.72 204.629C114.006 204.629 114.265 204.589 114.495 204.509C114.729 204.426 114.931 204.303 115.1 204.14C115.27 203.973 115.4 203.767 115.493 203.521L116.545 203.817C116.434 204.174 116.248 204.487 115.987 204.758C115.725 205.026 115.402 205.235 115.017 205.386C114.632 205.534 114.2 205.608 113.72 205.608ZM113.092 197.409L111.652 195.267H112.926L114.052 197.409H113.092ZM118.313 205.46V198.369H119.366V199.44H119.44C119.569 199.089 119.803 198.805 120.141 198.586C120.48 198.368 120.862 198.258 121.286 198.258C121.366 198.258 121.466 198.26 121.586 198.263C121.706 198.266 121.797 198.271 121.859 198.277V199.385C121.822 199.375 121.737 199.362 121.605 199.343C121.476 199.322 121.339 199.311 121.194 199.311C120.849 199.311 120.542 199.383 120.271 199.528C120.003 199.669 119.791 199.866 119.634 200.119C119.48 200.368 119.403 200.653 119.403 200.973V205.46H118.313ZM125.907 205.608C125.224 205.608 124.635 205.457 124.139 205.155C123.647 204.851 123.267 204.426 122.999 203.881C122.734 203.333 122.602 202.696 122.602 201.97C122.602 201.244 122.734 200.603 122.999 200.049C123.267 199.492 123.639 199.058 124.116 198.748C124.596 198.434 125.156 198.277 125.797 198.277C126.166 198.277 126.531 198.338 126.891 198.461C127.251 198.585 127.579 198.785 127.874 199.062C128.17 199.335 128.405 199.699 128.58 200.151C128.756 200.603 128.844 201.161 128.844 201.822V202.284H123.378V201.342H127.736C127.736 200.942 127.656 200.585 127.495 200.271C127.339 199.957 127.114 199.709 126.821 199.528C126.532 199.346 126.191 199.255 125.797 199.255C125.363 199.255 124.987 199.363 124.67 199.579C124.356 199.791 124.115 200.068 123.945 200.41C123.776 200.751 123.692 201.117 123.692 201.508V202.136C123.692 202.672 123.784 203.126 123.969 203.498C124.156 203.867 124.416 204.149 124.749 204.343C125.081 204.534 125.467 204.629 125.907 204.629C126.194 204.629 126.452 204.589 126.683 204.509C126.917 204.426 127.118 204.303 127.288 204.14C127.457 203.973 127.588 203.767 127.68 203.521L128.733 203.817C128.622 204.174 128.436 204.487 128.174 204.758C127.913 205.026 127.589 205.235 127.205 205.386C126.82 205.534 126.388 205.608 125.907 205.608ZM134.305 205.46V196.005H137.499C138.238 196.005 138.844 196.132 139.318 196.384C139.792 196.633 140.143 196.976 140.371 197.413C140.599 197.85 140.712 198.348 140.712 198.905C140.712 199.462 140.599 199.956 140.371 200.386C140.143 200.817 139.794 201.156 139.323 201.402C138.852 201.645 138.25 201.767 137.518 201.767H134.933V200.733H137.481C137.986 200.733 138.392 200.659 138.7 200.511C139.011 200.363 139.235 200.154 139.374 199.883C139.515 199.609 139.586 199.283 139.586 198.905C139.586 198.526 139.515 198.195 139.374 197.912C139.232 197.629 139.006 197.41 138.695 197.257C138.384 197.1 137.973 197.021 137.462 197.021H135.45V205.46H134.305ZM138.755 201.213L141.082 205.46H139.752L137.462 201.213H138.755ZM146.941 202.561V198.369H148.031V205.46H146.941V204.26H146.867C146.701 204.62 146.443 204.926 146.092 205.178C145.741 205.428 145.298 205.552 144.762 205.552C144.319 205.552 143.925 205.455 143.58 205.261C143.236 205.065 142.965 204.769 142.768 204.375C142.571 203.978 142.473 203.478 142.473 202.875V198.369H143.562V202.801C143.562 203.318 143.707 203.73 143.996 204.038C144.288 204.346 144.661 204.5 145.113 204.5C145.384 204.5 145.659 204.431 145.939 204.292C146.223 204.154 146.46 203.941 146.65 203.655C146.844 203.369 146.941 203.004 146.941 202.561ZM150.026 205.46V198.369H151.079V199.44H151.153C151.282 199.089 151.516 198.805 151.854 198.586C152.193 198.368 152.575 198.258 152.999 198.258C153.079 198.258 153.179 198.26 153.299 198.263C153.419 198.266 153.51 198.271 153.572 198.277V199.385C153.535 199.375 153.45 199.362 153.318 199.343C153.188 199.322 153.052 199.311 152.907 199.311C152.562 199.311 152.254 199.383 151.984 199.528C151.716 199.669 151.503 199.866 151.347 200.119C151.193 200.368 151.116 200.653 151.116 200.973V205.46H150.026ZM156.95 205.626C156.5 205.626 156.093 205.542 155.726 205.372C155.36 205.2 155.069 204.952 154.854 204.629C154.638 204.303 154.531 203.909 154.531 203.447C154.531 203.041 154.611 202.712 154.771 202.459C154.931 202.204 155.145 202.004 155.412 201.859C155.68 201.714 155.976 201.607 156.299 201.536C156.625 201.462 156.953 201.404 157.282 201.361C157.713 201.305 158.062 201.264 158.33 201.236C158.601 201.205 158.798 201.154 158.921 201.084C159.047 201.013 159.11 200.89 159.11 200.714V200.677C159.11 200.222 158.986 199.868 158.736 199.616C158.49 199.363 158.116 199.237 157.615 199.237C157.094 199.237 156.687 199.351 156.391 199.579C156.096 199.806 155.888 200.049 155.768 200.308L154.734 199.939C154.919 199.508 155.165 199.172 155.473 198.932C155.783 198.689 156.122 198.52 156.488 198.424C156.857 198.326 157.221 198.277 157.578 198.277C157.805 198.277 158.067 198.304 158.362 198.36C158.661 198.412 158.949 198.521 159.226 198.688C159.506 198.854 159.738 199.105 159.923 199.44C160.107 199.776 160.2 200.225 160.2 200.788V205.46H159.11V204.5H159.055C158.981 204.654 158.858 204.818 158.686 204.994C158.513 205.169 158.284 205.318 157.998 205.442C157.711 205.565 157.362 205.626 156.95 205.626ZM157.116 204.647C157.547 204.647 157.91 204.563 158.205 204.394C158.504 204.224 158.729 204.006 158.879 203.738C159.033 203.47 159.11 203.189 159.11 202.893V201.896C159.064 201.951 158.963 202.002 158.806 202.048C158.652 202.092 158.473 202.13 158.27 202.164C158.07 202.195 157.875 202.222 157.684 202.247C157.496 202.268 157.344 202.287 157.227 202.302C156.944 202.339 156.679 202.399 156.433 202.482C156.19 202.562 155.993 202.684 155.842 202.847C155.694 203.007 155.62 203.226 155.62 203.503C155.62 203.881 155.76 204.167 156.04 204.361C156.323 204.552 156.682 204.647 157.116 204.647ZM163.278 196.005V205.46H162.188V196.005H163.278ZM168.246 205.608C167.563 205.608 166.974 205.457 166.478 205.155C165.986 204.851 165.606 204.426 165.338 203.881C165.073 203.333 164.941 202.696 164.941 201.97C164.941 201.244 165.073 200.603 165.338 200.049C165.606 199.492 165.978 199.058 166.455 198.748C166.935 198.434 167.495 198.277 168.135 198.277C168.505 198.277 168.87 198.338 169.23 198.461C169.59 198.585 169.917 198.785 170.213 199.062C170.508 199.335 170.744 199.699 170.919 200.151C171.095 200.603 171.182 201.161 171.182 201.822V202.284H165.716V201.342H170.074C170.074 200.942 169.994 200.585 169.834 200.271C169.677 199.957 169.453 199.709 169.16 199.528C168.871 199.346 168.529 199.255 168.135 199.255C167.702 199.255 167.326 199.363 167.009 199.579C166.695 199.791 166.454 200.068 166.284 200.41C166.115 200.751 166.03 201.117 166.03 201.508V202.136C166.03 202.672 166.123 203.126 166.307 203.498C166.495 203.867 166.755 204.149 167.088 204.343C167.42 204.534 167.806 204.629 168.246 204.629C168.533 204.629 168.791 204.589 169.022 204.509C169.256 204.426 169.457 204.303 169.627 204.14C169.796 203.973 169.927 203.767 170.019 203.521L171.072 203.817C170.961 204.174 170.775 204.487 170.513 204.758C170.251 205.026 169.928 205.235 169.544 205.386C169.159 205.534 168.726 205.608 168.246 205.608Z" fill="#646363"/>
<path d="M28.1027 205.46V205.585H28.191L28.2205 205.502L28.1027 205.46ZM26.9025 205.46L26.7851 205.417L26.7234 205.585H26.9025V205.46ZM30.374 196.005V195.88H30.2868L30.2567 195.962L30.374 196.005ZM31.5559 196.005L31.6732 195.962L31.6431 195.88H31.5559V196.005ZM35.0275 205.46V205.585H35.2065L35.1448 205.417L35.0275 205.46ZM33.8272 205.46L33.7094 205.502L33.7389 205.585H33.8272V205.46ZM31.0019 197.501L31.1197 197.459L31.0902 197.376H31.0019V197.501ZM30.928 197.501V197.376H30.8398L30.8102 197.459L30.928 197.501ZM28.5459 201.767V201.642H28.4209V201.767H28.5459ZM33.384 201.767H33.509V201.642H33.384V201.767ZM33.384 202.782V202.907H33.509V202.782H33.384ZM28.5459 202.782H28.4209V202.907H28.5459V202.782ZM28.1027 205.335H26.9025V205.585H28.1027V205.335ZM27.0198 205.503L30.4914 196.049L30.2567 195.962L26.7851 205.417L27.0198 205.503ZM30.374 196.13H31.5559V195.88H30.374V196.13ZM31.4385 196.049L34.9101 205.503L35.1448 205.417L31.6732 195.962L31.4385 196.049ZM35.0275 205.335H33.8272V205.585H35.0275V205.335ZM33.945 205.418L31.1197 197.459L30.8841 197.543L33.7094 205.502L33.945 205.418ZM31.0019 197.376H30.928V197.626H31.0019V197.376ZM30.8102 197.459L27.9849 205.418L28.2205 205.502L31.0458 197.543L30.8102 197.459ZM28.5459 201.892H33.384V201.642H28.5459V201.892ZM33.259 201.767V202.782H33.509V201.767H33.259ZM33.384 202.657H28.5459V202.907H33.384V202.657ZM28.6709 202.782V201.767H28.4209V202.782H28.6709ZM37.8574 208.064L37.8995 207.946L37.8986 207.946L37.8574 208.064ZM36.911 207.537L36.9928 207.443L36.9927 207.443L36.911 207.537ZM36.3155 206.845L36.2436 206.743L36.1484 206.809L36.2083 206.909L36.3155 206.845ZM37.1833 206.236L37.2828 206.16L37.2099 206.064L37.1115 206.133L37.1833 206.236ZM37.5573 206.679L37.6506 206.596L37.6499 206.595L37.5573 206.679ZM38.1759 207.117L38.2297 207.004L38.2291 207.004L38.1759 207.117ZM40.6319 206.891L40.7065 206.991L40.7065 206.991L40.6319 206.891ZM41.1905 204.149H41.3155V204.024H41.1905V204.149ZM41.0981 204.149V204.024H41.0285L40.9918 204.083L41.0981 204.149ZM40.7565 204.629L40.6577 204.553L40.6575 204.553L40.7565 204.629ZM40.1287 205.132L40.1876 205.242L40.188 205.242L40.1287 205.132ZM37.488 204.943L37.4238 205.05L37.4242 205.05L37.488 204.943ZM36.4124 203.761L36.3009 203.818L36.3011 203.818L36.4124 203.761ZM36.4032 199.98L36.5161 200.034L36.5162 200.034L36.4032 199.98ZM37.4696 198.725L37.5376 198.829L37.5381 198.829L37.4696 198.725ZM40.1471 198.508L40.0854 198.616L40.0868 198.617L40.1471 198.508ZM40.775 199.025L40.6748 199.099L40.6761 199.101L40.775 199.025ZM41.1166 199.496L41.0118 199.564L41.0488 199.621H41.1166V199.496ZM41.2274 199.496V199.621H41.3524V199.496H41.2274ZM41.2274 198.369V198.244H41.1024V198.369H41.2274ZM42.2799 198.369H42.4049V198.244H42.2799V198.369ZM41.8645 207.15L41.7633 207.076L41.7626 207.077L41.8645 207.15ZM40.7565 207.994L40.7117 207.878L40.7107 207.878L40.7565 207.994ZM40.2856 204.07L40.2165 203.966L40.2165 203.966L40.2856 204.07ZM40.9735 203.207L41.0888 203.255L41.0888 203.255L40.9735 203.207ZM40.9781 200.507L41.0944 200.461L41.0944 200.461L40.9781 200.507ZM40.2949 199.588L40.2208 199.689L40.2208 199.689L40.2949 199.588ZM38.0235 199.606L37.9479 199.507L37.9474 199.507L38.0235 199.606ZM37.3357 200.548L37.2193 200.503L37.219 200.503L37.3357 200.548ZM37.3403 203.166L37.2245 203.213L37.225 203.214L37.3403 203.166ZM38.0328 204.052L37.9606 204.154L37.9618 204.155L38.0328 204.052ZM39.2146 208.142C38.6985 208.142 38.261 208.075 37.8995 207.946L37.8153 208.181C38.2108 208.323 38.6782 208.392 39.2146 208.392V208.142ZM37.8986 207.946C37.532 207.818 37.2311 207.649 36.9928 207.443L36.8292 207.632C37.0956 207.863 37.4256 208.045 37.8161 208.182L37.8986 207.946ZM36.9927 207.443C36.752 207.235 36.5626 207.014 36.4226 206.781L36.2083 206.909C36.3637 207.168 36.5714 207.409 36.8292 207.632L36.9927 207.443ZM36.3873 206.947L37.2552 206.338L37.1115 206.133L36.2436 206.743L36.3873 206.947ZM37.0839 206.311C37.1852 206.444 37.3123 206.595 37.4647 206.763L37.6499 206.595C37.5006 206.43 37.3785 206.285 37.2828 206.16L37.0839 206.311ZM37.464 206.762C37.6286 206.947 37.8499 207.102 38.1227 207.23L38.2291 207.004C37.9787 206.886 37.7876 206.749 37.6506 206.596L37.464 206.762ZM38.1221 207.23C38.4095 207.367 38.7761 207.432 39.2146 207.432V207.182C38.7975 207.182 38.4717 207.12 38.2297 207.004L38.1221 207.23ZM39.2146 207.432C39.8075 207.432 40.3079 207.288 40.7065 206.991L40.5573 206.791C40.211 207.048 39.7666 207.182 39.2146 207.182V207.432ZM40.7065 206.991C41.119 206.685 41.3155 206.208 41.3155 205.589H41.0655C41.0655 206.153 40.8895 206.544 40.5573 206.791L40.7065 206.991ZM41.3155 205.589V204.149H41.0655V205.589H41.3155ZM41.1905 204.024H41.0981V204.274H41.1905V204.024ZM40.9918 204.083C40.915 204.207 40.8041 204.363 40.6577 204.553L40.8553 204.706C41.0044 204.513 41.1212 204.349 41.2044 204.215L40.9918 204.083ZM40.6575 204.553C40.5263 204.723 40.3324 204.88 40.0693 205.022L40.188 205.242C40.4727 205.089 40.6974 204.911 40.8555 204.705L40.6575 204.553ZM40.0698 205.022C39.8239 205.153 39.4806 205.224 39.0299 205.224V205.474C39.5026 205.474 39.8917 205.4 40.1876 205.242L40.0698 205.022ZM39.0299 205.224C38.4781 205.224 37.9865 205.094 37.5519 204.836L37.4242 205.05C37.9005 205.334 38.4369 205.474 39.0299 205.474V205.224ZM37.5522 204.836C37.1219 204.578 36.7788 204.203 36.5237 203.704L36.3011 203.818C36.5754 204.354 36.9493 204.766 37.4238 205.05L37.5522 204.836ZM36.5239 203.705C36.2733 203.209 36.145 202.602 36.145 201.878H35.895C35.895 202.631 36.0283 203.279 36.3009 203.818L36.5239 203.705ZM36.145 201.878C36.145 201.166 36.2701 200.552 36.5161 200.034L36.2902 199.927C36.0253 200.485 35.895 201.137 35.895 201.878H36.145ZM36.5162 200.034C36.7628 199.511 37.1036 199.111 37.5376 198.829L37.4015 198.62C36.9246 198.929 36.5544 199.366 36.2901 199.927L36.5162 200.034ZM37.5381 198.829C37.9713 198.545 38.4732 198.402 39.0484 198.402V198.152C38.4294 198.152 37.8789 198.307 37.4011 198.62L37.5381 198.829ZM39.0484 198.402C39.4981 198.402 39.8403 198.477 40.0854 198.616L40.2089 198.399C39.9123 198.23 39.522 198.152 39.0484 198.152V198.402ZM40.0868 198.617C40.3495 198.762 40.5434 198.923 40.6748 199.099L40.8752 198.95C40.7172 198.738 40.4926 198.555 40.2074 198.398L40.0868 198.617ZM40.6761 199.101C40.8229 199.291 40.9344 199.445 41.0118 199.564L41.2214 199.427C41.1387 199.3 41.0225 199.14 40.8738 198.948L40.6761 199.101ZM41.1166 199.621H41.2274V199.371H41.1166V199.621ZM41.3524 199.496V198.369H41.1024V199.496H41.3524ZM41.2274 198.494H42.2799V198.244H41.2274V198.494ZM42.1549 198.369V205.663H42.4049V198.369H42.1549ZM42.1549 205.663C42.1549 206.254 42.0208 206.721 41.7633 207.076L41.9656 207.223C42.2621 206.815 42.4049 206.291 42.4049 205.663H42.1549ZM41.7626 207.077C41.5038 207.441 41.1548 207.708 40.7117 207.878L40.8013 208.111C41.2877 207.924 41.6773 207.628 41.9663 207.222L41.7626 207.077ZM40.7107 207.878C40.2656 208.053 39.7674 208.142 39.2146 208.142V208.392C39.7944 208.392 40.3241 208.299 40.8023 208.111L40.7107 207.878ZM39.1777 204.496C39.6341 204.496 40.0287 204.391 40.3547 204.175L40.2165 203.966C39.9393 204.15 39.5953 204.246 39.1777 204.246V204.496ZM40.3547 204.175C40.6794 203.959 40.9235 203.651 41.0888 203.255L40.8581 203.159C40.7095 203.515 40.495 203.782 40.2165 203.966L40.3547 204.175ZM41.0888 203.255C41.2537 202.861 41.3339 202.394 41.3339 201.859H41.0839C41.0839 202.37 41.0072 202.802 40.8581 203.159L41.0888 203.255ZM41.3339 201.859C41.3339 201.336 41.2551 200.869 41.0944 200.461L40.8618 200.552C41.0088 200.926 41.0839 201.361 41.0839 201.859H41.3339ZM41.0944 200.461C40.933 200.051 40.6917 199.724 40.3689 199.487L40.2208 199.689C40.5012 199.895 40.7154 200.181 40.8618 200.552L41.0944 200.461ZM40.3689 199.487C40.0421 199.247 39.6424 199.13 39.1777 199.13V199.38C39.5993 199.38 39.9444 199.485 40.2208 199.689L40.3689 199.487ZM39.1777 199.13C38.6942 199.13 38.2814 199.253 37.9479 199.507L38.0992 199.706C38.3812 199.491 38.7379 199.38 39.1777 199.38V199.13ZM37.9474 199.507C37.6229 199.756 37.3806 200.09 37.2193 200.503L37.4521 200.594C37.5986 200.219 37.8149 199.924 38.0997 199.705L37.9474 199.507ZM37.219 200.503C37.062 200.913 36.9845 201.366 36.9845 201.859H37.2345C37.2345 201.392 37.3078 200.971 37.4524 200.593L37.219 200.503ZM36.9845 201.859C36.9845 202.364 37.0634 202.816 37.2245 203.213L37.4561 203.119C37.3094 202.758 37.2345 202.339 37.2345 201.859H36.9845ZM37.225 203.214C37.3901 203.609 37.635 203.924 37.9606 204.154L38.1049 203.95C37.8211 203.749 37.6044 203.473 37.4556 203.117L37.225 203.214ZM37.9618 204.155C38.2946 204.384 38.7024 204.496 39.1777 204.496V204.246C38.7419 204.246 38.3865 204.144 38.1038 203.949L37.9618 204.155ZM45.4792 205.155L45.4134 205.262L45.4142 205.262L45.4792 205.155ZM44.3389 203.881L44.2263 203.936L44.2267 203.936L44.3389 203.881ZM44.3389 200.049L44.2262 199.995L44.2261 199.996L44.3389 200.049ZM45.4561 198.748L45.5243 198.852L45.5245 198.852L45.4561 198.748ZM48.2306 198.461L48.271 198.343L48.271 198.343L48.2306 198.461ZM49.2139 199.062L49.1284 199.153L49.1289 199.153L49.2139 199.062ZM49.9202 200.151L50.0368 200.106L50.0368 200.106L49.9202 200.151ZM50.1833 202.284V202.409H50.3083V202.284H50.1833ZM44.7174 202.284H44.5924V202.409H44.7174V202.284ZM44.7174 201.342V201.217H44.5924V201.342H44.7174ZM49.0754 201.342V201.467H49.2004V201.342H49.0754ZM48.8353 200.271L48.7235 200.327L48.724 200.328L48.8353 200.271ZM48.1613 199.528L48.0949 199.634L48.0954 199.634L48.1613 199.528ZM46.0101 199.579L46.0801 199.682L46.0803 199.682L46.0101 199.579ZM45.2853 200.41L45.1733 200.354L45.1733 200.354L45.2853 200.41ZM45.3083 203.498L45.1964 203.554L45.1969 203.555L45.3083 203.498ZM46.0885 204.343L46.0255 204.451L46.0263 204.451L46.0885 204.343ZM48.0228 204.509L48.0638 204.627L48.0647 204.627L48.0228 204.509ZM48.6276 204.14L48.7143 204.23L48.7152 204.229L48.6276 204.14ZM49.02 203.521L49.0538 203.401L48.9433 203.37L48.903 203.477L49.02 203.521ZM50.0726 203.817L50.1919 203.854L50.23 203.731L50.1063 203.696L50.0726 203.817ZM49.514 204.758L49.6034 204.846L49.6039 204.845L49.514 204.758ZM48.5445 205.386L48.5893 205.503L48.5901 205.503L48.5445 205.386ZM47.2473 205.483C46.5828 205.483 46.0168 205.336 45.5442 205.049L45.4142 205.262C45.9325 205.578 46.5452 205.733 47.2473 205.733V205.483ZM45.5449 205.049C45.0735 204.757 44.709 204.351 44.4511 203.826L44.2267 203.936C44.5043 204.501 44.9 204.944 45.4134 205.262L45.5449 205.049ZM44.4514 203.827C44.1964 203.299 44.0669 202.681 44.0669 201.97H43.8169C43.8169 202.711 43.952 203.368 44.2263 203.936L44.4514 203.827ZM44.0669 201.97C44.0669 201.259 44.1964 200.638 44.4517 200.103L44.2261 199.996C43.952 200.569 43.8169 201.228 43.8169 201.97H44.0669ZM44.4516 200.104C44.7103 199.565 45.0681 199.15 45.5243 198.852L45.3878 198.643C44.89 198.967 44.503 199.419 44.2262 199.995L44.4516 200.104ZM45.5245 198.852C45.9819 198.553 46.5177 198.402 47.1365 198.402V198.152C46.4749 198.152 45.8904 198.314 45.3877 198.643L45.5245 198.852ZM47.1365 198.402C47.4916 198.402 47.8427 198.461 48.1901 198.58L48.271 198.343C47.8983 198.216 47.52 198.152 47.1365 198.152V198.402ZM48.1901 198.58C48.5324 198.697 48.845 198.887 49.1284 199.153L49.2994 198.97C48.9918 198.682 48.6489 198.472 48.271 198.343L48.1901 198.58ZM49.1289 199.153C49.4079 199.412 49.6337 199.758 49.8037 200.196L50.0368 200.106C49.8559 199.639 49.6108 199.259 49.2989 198.97L49.1289 199.153ZM49.8037 200.196C49.9719 200.63 50.0583 201.171 50.0583 201.822H50.3083C50.3083 201.15 50.2194 200.577 50.0368 200.106L49.8037 200.196ZM50.0583 201.822V202.284H50.3083V201.822H50.0583ZM50.1833 202.159H44.7174V202.409H50.1833V202.159ZM44.8424 202.284V201.342H44.5924V202.284H44.8424ZM44.7174 201.467H49.0754V201.217H44.7174V201.467ZM49.2004 201.342C49.2004 200.925 49.1169 200.548 48.9467 200.214L48.724 200.328C48.8739 200.622 48.9504 200.959 48.9504 201.342H49.2004ZM48.9471 200.215C48.7801 199.881 48.5397 199.616 48.2273 199.422L48.0954 199.634C48.3677 199.803 48.5767 200.033 48.7235 200.327L48.9471 200.215ZM48.2278 199.422C47.9157 199.226 47.5502 199.13 47.1365 199.13V199.38C47.5106 199.38 47.8284 199.466 48.0949 199.634L48.2278 199.422ZM47.1365 199.13C46.6809 199.13 46.2802 199.244 45.9398 199.475L46.0803 199.682C46.3739 199.482 46.7242 199.38 47.1365 199.38V199.13ZM45.94 199.475C45.6081 199.7 45.3521 199.993 45.1733 200.354L45.3973 200.465C45.557 200.143 45.7842 199.882 46.0801 199.682L45.94 199.475ZM45.1733 200.354C44.9952 200.713 44.9064 201.099 44.9064 201.508H45.1564C45.1564 201.136 45.2368 200.789 45.3973 200.465L45.1733 200.354ZM44.9064 201.508V202.136H45.1564V201.508H44.9064ZM44.9064 202.136C44.9064 202.686 45.001 203.16 45.1964 203.554L45.4203 203.442C45.2463 203.092 45.1564 202.658 45.1564 202.136H44.9064ZM45.1969 203.555C45.3947 203.944 45.6708 204.244 46.0256 204.451L46.1515 204.235C45.8415 204.054 45.5975 203.791 45.4198 203.441L45.1969 203.555ZM46.0263 204.451C46.3803 204.654 46.7886 204.754 47.2473 204.754V204.504C46.8257 204.504 46.4616 204.413 46.1508 204.234L46.0263 204.451ZM47.2473 204.754C47.5451 204.754 47.8177 204.712 48.0638 204.627L47.9819 204.391C47.7663 204.466 47.5219 204.504 47.2473 204.504V204.754ZM48.0647 204.627C48.3144 204.538 48.5315 204.406 48.7143 204.23L48.5409 204.05C48.3851 204.2 48.1991 204.314 47.981 204.391L48.0647 204.627ZM48.7152 204.229C48.8988 204.049 49.039 203.826 49.137 203.565L48.903 203.477C48.8163 203.708 48.6949 203.898 48.54 204.05L48.7152 204.229ZM48.9862 203.641L50.0388 203.937L50.1063 203.696L49.0538 203.401L48.9862 203.641ZM49.9532 203.779C49.8482 204.118 49.6722 204.415 49.4241 204.671L49.6039 204.845C49.8789 204.56 50.0753 204.229 50.1919 203.854L49.9532 203.779ZM49.4246 204.671C49.1766 204.925 48.8688 205.125 48.4989 205.27L48.5901 205.503C48.9896 205.346 49.3282 205.127 49.6034 204.846L49.4246 204.671ZM48.4997 205.269C48.1314 205.411 47.7146 205.483 47.2473 205.483V205.733C47.7402 205.733 48.1882 205.657 48.5893 205.503L48.4997 205.269ZM52.9302 205.46V205.585H53.0552V205.46H52.9302ZM51.8407 205.46H51.7157V205.585H51.8407V205.46ZM51.8407 198.369V198.244H51.7157V198.369H51.8407ZM52.8932 198.369H53.0182V198.244H52.8932V198.369ZM52.8932 199.477H52.7682V199.602H52.8932V199.477ZM52.9856 199.477V199.602H53.0655L53.099 199.529L52.9856 199.477ZM53.7427 198.609L53.8104 198.714L53.8111 198.714L53.7427 198.609ZM56.314 198.572L56.254 198.682L56.2548 198.682L56.314 198.572ZM57.1542 199.459L57.0426 199.515L57.0428 199.515L57.1542 199.459ZM57.4543 205.46V205.585H57.5793V205.46H57.4543ZM56.3648 205.46H56.2398V205.585H56.3648V205.46ZM55.9309 199.726L55.8389 199.811L55.8394 199.811L55.9309 199.726ZM53.8073 199.482L53.747 199.372L53.7465 199.372L53.8073 199.482ZM53.1656 200.142L53.0557 200.082L53.0557 200.082L53.1656 200.142ZM52.8052 201.194V205.46H53.0552V201.194H52.8052ZM52.9302 205.335H51.8407V205.585H52.9302V205.335ZM51.9657 205.46V198.369H51.7157V205.46H51.9657ZM51.8407 198.494H52.8932V198.244H51.8407V198.494ZM52.7682 198.369V199.477H53.0182V198.369H52.7682ZM52.8932 199.602H52.9856V199.352H52.8932V199.602ZM53.099 199.529C53.2551 199.191 53.4915 198.92 53.8104 198.714L53.6749 198.504C53.3167 198.735 53.0484 199.043 52.8721 199.425L53.099 199.529ZM53.8111 198.714C54.1237 198.509 54.5348 198.402 55.0537 198.402V198.152C54.5016 198.152 54.0387 198.266 53.6742 198.505L53.8111 198.714ZM55.0537 198.402C55.5165 198.402 55.9153 198.497 56.254 198.682L56.374 198.463C55.9926 198.254 55.5512 198.152 55.0537 198.152V198.402ZM56.2548 198.682C56.5903 198.863 56.853 199.139 57.0426 199.515L57.2659 199.402C57.0553 198.985 56.7579 198.669 56.3733 198.462L56.2548 198.682ZM57.0428 199.515C57.2313 199.886 57.3293 200.364 57.3293 200.954H57.5793C57.5793 200.338 57.4773 199.819 57.2657 199.402L57.0428 199.515ZM57.3293 200.954V205.46H57.5793V200.954H57.3293ZM57.4543 205.335H56.3648V205.585H57.4543V205.335ZM56.4898 205.46V201.028H56.2398V205.46H56.4898ZM56.4898 201.028C56.4898 200.45 56.3392 199.982 56.0224 199.641L55.8394 199.811C56.1011 200.093 56.2398 200.493 56.2398 201.028H56.4898ZM56.0228 199.642C55.7055 199.297 55.2725 199.13 54.7398 199.13V199.38C55.2166 199.38 55.5776 199.527 55.8389 199.811L56.0228 199.642ZM54.7398 199.13C54.3734 199.13 54.0414 199.21 53.747 199.372L53.8676 199.591C54.121 199.452 54.4107 199.38 54.7398 199.38V199.13ZM53.7465 199.372C53.4536 199.536 53.2233 199.773 53.0557 200.082L53.2755 200.201C53.4218 199.932 53.6193 199.729 53.8681 199.591L53.7465 199.372ZM53.0557 200.082C52.8866 200.394 52.8052 200.766 52.8052 201.194H53.0552C53.0552 200.798 53.1306 200.468 53.2755 200.201L53.0557 200.082ZM60.6085 205.137L60.5401 205.241L60.5401 205.241L60.6085 205.137ZM59.5098 200.045L59.3972 199.99L59.3971 199.991L59.5098 200.045ZM60.627 198.748L60.6952 198.852L60.6954 198.852L60.627 198.748ZM64.6387 199.329L64.7378 199.253L64.7378 199.253L64.6387 199.329ZM65.1142 200.493V200.618H65.2578L65.238 200.475L65.1142 200.493ZM64.0247 200.493L63.9036 200.524L63.9278 200.618H64.0247V200.493ZM63.4707 199.634L63.3875 199.727L63.3886 199.728L63.4707 199.634ZM61.2087 199.588L61.2796 199.691L61.2798 199.691L61.2087 199.588ZM60.4654 200.516L60.3512 200.465L60.3511 200.465L60.4654 200.516ZM60.4608 203.346L60.3457 203.394L60.346 203.395L60.4608 203.346ZM61.1994 204.292L61.1271 204.394L61.1276 204.394L61.1994 204.292ZM63.0968 204.481L63.0477 204.366L63.0477 204.366L63.0968 204.481ZM63.6831 204.057L63.7775 204.138L63.7775 204.138L63.6831 204.057ZM64.0247 203.392V203.267H63.9282L63.9038 203.36L64.0247 203.392ZM65.1142 203.392L65.2379 203.41L65.2589 203.267H65.1142V203.392ZM64.6572 204.523L64.5559 204.449L64.5558 204.45L64.6572 204.523ZM63.7015 205.317L63.7567 205.429L63.7571 205.429L63.7015 205.317ZM62.3258 205.483C61.6814 205.483 61.1336 205.331 60.6769 205.032L60.5401 205.241C61.0436 205.571 61.6407 205.733 62.3258 205.733V205.483ZM60.6769 205.032C60.2174 204.732 59.863 204.318 59.6137 203.787L59.3874 203.893C59.6551 204.463 60.0394 204.914 60.5401 205.241L60.6769 205.032ZM59.6137 203.787C59.3642 203.255 59.2378 202.644 59.2378 201.951H58.9878C58.9878 202.675 59.1199 203.323 59.3874 203.893L59.6137 203.787ZM59.2378 201.951C59.2378 201.247 59.3672 200.63 59.6225 200.099L59.3971 199.991C59.123 200.561 58.9878 201.216 58.9878 201.951H59.2378ZM59.6223 200.099C59.881 199.564 60.2388 199.15 60.6952 198.852L60.5587 198.643C60.0611 198.967 59.6741 199.418 59.3972 199.99L59.6223 200.099ZM60.6954 198.852C61.1528 198.553 61.6886 198.402 62.3074 198.402V198.152C61.6458 198.152 61.0613 198.314 60.5586 198.643L60.6954 198.852ZM62.3074 198.402C62.7902 198.402 63.2214 198.491 63.603 198.667L63.7078 198.44C63.2892 198.247 62.8217 198.152 62.3074 198.152V198.402ZM63.603 198.667C63.9857 198.844 64.2971 199.09 64.5396 199.405L64.7378 199.253C64.4694 198.904 64.1253 198.633 63.7078 198.44L63.603 198.667ZM64.5396 199.405C64.7809 199.72 64.9316 200.087 64.9904 200.51L65.238 200.475C65.1737 200.012 65.0073 199.604 64.7378 199.253L64.5396 199.405ZM65.1142 200.368H64.0247V200.618H65.1142V200.368ZM64.1458 200.462C64.0555 200.111 63.8554 199.803 63.5528 199.54L63.3886 199.728C63.6585 199.963 63.8277 200.228 63.9036 200.524L64.1458 200.462ZM63.5539 199.541C63.2423 199.263 62.8282 199.13 62.3258 199.13V199.38C62.7837 199.38 63.1329 199.5 63.3876 199.727L63.5539 199.541ZM62.3258 199.13C61.8781 199.13 61.4804 199.248 61.1375 199.485L61.2798 199.691C61.5771 199.485 61.9241 199.38 62.3258 199.38V199.13ZM61.1377 199.485C60.7993 199.718 60.5378 200.047 60.3512 200.465L60.5796 200.567C60.75 200.185 60.984 199.895 61.2796 199.691L61.1377 199.485ZM60.3511 200.465C60.1672 200.881 60.0773 201.366 60.0773 201.915H60.3273C60.3273 201.392 60.4128 200.944 60.5797 200.566L60.3511 200.465ZM60.0773 201.915C60.0773 202.475 60.1654 202.97 60.3457 203.394L60.5759 203.297C60.4114 202.909 60.3273 202.45 60.3273 201.915H60.0773ZM60.346 203.395C60.5292 203.82 60.789 204.154 61.1271 204.394L61.2717 204.19C60.9759 203.98 60.7432 203.684 60.5755 203.296L60.346 203.395ZM61.1276 204.394C61.4709 204.635 61.872 204.754 62.3258 204.754V204.504C61.9179 204.504 61.5681 204.398 61.2712 204.19L61.1276 204.394ZM62.3258 204.754C62.6237 204.754 62.8976 204.702 63.1458 204.596L63.0477 204.366C62.8343 204.457 62.5943 204.504 62.3258 204.504V204.754ZM63.1458 204.596C63.3936 204.491 63.6047 204.338 63.7775 204.138L63.5886 203.975C63.4414 204.145 63.2616 204.275 63.0477 204.366L63.1458 204.596ZM63.7775 204.138C63.9513 203.938 64.0735 203.699 64.1456 203.423L63.9038 203.36C63.8405 203.602 63.735 203.806 63.5886 203.975L63.7775 204.138ZM64.0247 203.517H65.1142V203.267H64.0247V203.517ZM64.9905 203.374C64.9318 203.773 64.787 204.131 64.5559 204.449L64.7584 204.596C65.0136 204.244 65.1734 203.848 65.2379 203.41L64.9905 203.374ZM64.5558 204.45C64.3286 204.764 64.0263 205.016 63.646 205.205L63.7571 205.429C64.1708 205.224 64.5056 204.946 64.7585 204.596L64.5558 204.45ZM63.6463 205.205C63.2726 205.389 62.8335 205.483 62.3258 205.483V205.733C62.8645 205.733 63.3426 205.633 63.7567 205.429L63.6463 205.205ZM67.9118 205.155L67.846 205.262L67.8468 205.262L67.9118 205.155ZM66.7715 203.881L66.659 203.936L66.6593 203.936L66.7715 203.881ZM66.7715 200.049L66.6588 199.995L66.6587 199.996L66.7715 200.049ZM67.8887 198.748L67.9569 198.852L67.9571 198.852L67.8887 198.748ZM70.6632 198.461L70.7036 198.343L70.7036 198.343L70.6632 198.461ZM71.6465 199.062L71.561 199.153L71.5615 199.153L71.6465 199.062ZM72.3528 200.151L72.4694 200.106L72.4694 200.106L72.3528 200.151ZM72.616 202.284V202.409H72.741V202.284H72.616ZM67.1501 202.284H67.0251V202.409H67.1501V202.284ZM67.1501 201.342V201.217H67.0251V201.342H67.1501ZM71.508 201.342V201.467H71.633V201.342H71.508ZM71.268 200.271L71.1561 200.327L71.1566 200.328L71.268 200.271ZM70.594 199.528L70.5275 199.634L70.528 199.634L70.594 199.528ZM68.4427 199.579L68.5127 199.682L68.5129 199.682L68.4427 199.579ZM67.7179 200.41L67.6059 200.354L67.6059 200.354L67.7179 200.41ZM67.741 203.498L67.629 203.554L67.6295 203.555L67.741 203.498ZM68.5212 204.343L68.4582 204.451L68.4589 204.451L68.5212 204.343ZM70.4555 204.509L70.4964 204.627L70.4973 204.627L70.4555 204.509ZM71.0602 204.14L71.147 204.23L71.1478 204.229L71.0602 204.14ZM71.4526 203.521L71.4864 203.401L71.3759 203.37L71.3356 203.477L71.4526 203.521ZM72.5052 203.817L72.6246 203.854L72.6626 203.731L72.539 203.696L72.5052 203.817ZM71.9466 204.758L72.036 204.846L72.0365 204.845L71.9466 204.758ZM70.9771 205.386L71.0219 205.503L71.0227 205.503L70.9771 205.386ZM69.6799 205.483C69.0155 205.483 68.4494 205.336 67.9768 205.049L67.8468 205.262C68.3651 205.578 68.9778 205.733 69.6799 205.733V205.483ZM67.9775 205.049C67.5061 204.757 67.1416 204.351 66.8837 203.826L66.6593 203.936C66.9369 204.501 67.3326 204.944 67.846 205.262L67.9775 205.049ZM66.8841 203.827C66.629 203.299 66.4995 202.681 66.4995 201.97H66.2495C66.2495 202.711 66.3846 203.368 66.659 203.936L66.8841 203.827ZM66.4995 201.97C66.4995 201.259 66.629 200.638 66.8843 200.103L66.6587 199.996C66.3847 200.569 66.2495 201.228 66.2495 201.97H66.4995ZM66.8842 200.104C67.1429 199.565 67.5007 199.15 67.9569 198.852L67.8205 198.643C67.3226 198.967 66.9356 199.419 66.6588 199.995L66.8842 200.104ZM67.9571 198.852C68.4146 198.553 68.9503 198.402 69.5691 198.402V198.152C68.9076 198.152 68.323 198.314 67.8203 198.643L67.9571 198.852ZM69.5691 198.402C69.9242 198.402 70.2753 198.461 70.6228 198.58L70.7036 198.343C70.3309 198.216 69.9526 198.152 69.5691 198.152V198.402ZM70.6228 198.58C70.965 198.697 71.2776 198.887 71.561 199.153L71.732 198.97C71.4245 198.682 71.0816 198.472 70.7036 198.343L70.6228 198.58ZM71.5615 199.153C71.8405 199.412 72.0663 199.758 72.2363 200.196L72.4694 200.106C72.2885 199.639 72.0434 199.259 71.7315 198.97L71.5615 199.153ZM72.2363 200.196C72.4045 200.63 72.491 201.171 72.491 201.822H72.741C72.741 201.15 72.652 200.577 72.4694 200.106L72.2363 200.196ZM72.491 201.822V202.284H72.741V201.822H72.491ZM72.616 202.159H67.1501V202.409H72.616V202.159ZM67.2751 202.284V201.342H67.0251V202.284H67.2751ZM67.1501 201.467H71.508V201.217H67.1501V201.467ZM71.633 201.342C71.633 200.925 71.5495 200.548 71.3793 200.214L71.1566 200.328C71.3065 200.622 71.383 200.959 71.383 201.342H71.633ZM71.3798 200.215C71.2127 199.881 70.9723 199.616 70.6599 199.422L70.528 199.634C70.8003 199.803 71.0093 200.033 71.1562 200.327L71.3798 200.215ZM70.6604 199.422C70.3483 199.226 69.9829 199.13 69.5691 199.13V199.38C69.9432 199.38 70.261 199.466 70.5275 199.634L70.6604 199.422ZM69.5691 199.13C69.1135 199.13 68.7128 199.244 68.3724 199.475L68.5129 199.682C68.8065 199.482 69.1568 199.38 69.5691 199.38V199.13ZM68.3726 199.475C68.0407 199.7 67.7847 199.993 67.6059 200.354L67.8299 200.465C67.9896 200.143 68.2168 199.882 68.5127 199.682L68.3726 199.475ZM67.6059 200.354C67.4278 200.713 67.339 201.099 67.339 201.508H67.589C67.589 201.136 67.6694 200.789 67.8299 200.465L67.6059 200.354ZM67.339 201.508V202.136H67.589V201.508H67.339ZM67.339 202.136C67.339 202.686 67.4337 203.16 67.629 203.554L67.853 203.442C67.679 203.092 67.589 202.658 67.589 202.136H67.339ZM67.6295 203.555C67.8273 203.944 68.1034 204.244 68.4582 204.451L68.5841 204.235C68.2741 204.054 68.0301 203.791 67.8524 203.441L67.6295 203.555ZM68.4589 204.451C68.8129 204.654 69.2212 204.754 69.6799 204.754V204.504C69.2583 204.504 68.8942 204.413 68.5834 204.234L68.4589 204.451ZM69.6799 204.754C69.9777 204.754 70.2504 204.712 70.4964 204.627L70.4145 204.391C70.1989 204.466 69.9545 204.504 69.6799 204.504V204.754ZM70.4973 204.627C70.747 204.538 70.9642 204.406 71.147 204.23L70.9735 204.05C70.8177 204.2 70.6317 204.314 70.4136 204.391L70.4973 204.627ZM71.1478 204.229C71.3314 204.049 71.4716 203.826 71.5697 203.565L71.3356 203.477C71.2489 203.708 71.1276 203.898 70.9726 204.05L71.1478 204.229ZM71.4188 203.641L72.4714 203.937L72.539 203.696L71.4864 203.401L71.4188 203.641ZM72.3858 203.779C72.2808 204.118 72.1048 204.415 71.8567 204.671L72.0365 204.845C72.3116 204.56 72.5079 204.229 72.6246 203.854L72.3858 203.779ZM71.8572 204.671C71.6092 204.925 71.3014 205.125 70.9315 205.27L71.0227 205.503C71.4222 205.346 71.7608 205.127 72.036 204.846L71.8572 204.671ZM70.9323 205.269C70.5641 205.411 70.1472 205.483 69.6799 205.483V205.733C70.1728 205.733 70.6208 205.657 71.0219 205.503L70.9323 205.269ZM78.0773 205.46H77.9523V205.585H78.0773V205.46ZM78.0773 196.005V195.88H77.9523V196.005H78.0773ZM83.7463 196.005H83.8713V195.88H83.7463V196.005ZM83.7463 197.021V197.146H83.8713V197.021H83.7463ZM79.2221 197.021V196.896H79.0971V197.021H79.2221ZM79.2221 200.216H79.0971V200.341H79.2221V200.216ZM83.3216 200.216H83.4466V200.091H83.3216V200.216ZM83.3216 201.231V201.356H83.4466V201.231H83.3216ZM79.2221 201.231V201.106H79.0971V201.231H79.2221ZM79.2221 205.46V205.585H79.3471V205.46H79.2221ZM78.2023 205.46V196.005H77.9523V205.46H78.2023ZM78.0773 196.13H83.7463V195.88H78.0773V196.13ZM83.6213 196.005V197.021H83.8713V196.005H83.6213ZM83.7463 196.896H79.2221V197.146H83.7463V196.896ZM79.0971 197.021V200.216H79.3471V197.021H79.0971ZM79.2221 200.341H83.3216V200.091H79.2221V200.341ZM83.1966 200.216V201.231H83.4466V200.216H83.1966ZM83.3216 201.106H79.2221V201.356H83.3216V201.106ZM79.0971 201.231V205.46H79.3471V201.231H79.0971ZM79.2221 205.335H78.0773V205.585H79.2221V205.335ZM86.2346 205.151L86.1676 205.256L86.1679 205.256L86.2346 205.151ZM85.1082 203.872L84.9958 203.927L84.9961 203.927L85.1082 203.872ZM85.1082 200.017L84.996 199.962L84.9957 199.963L85.1082 200.017ZM86.2346 198.734L86.1679 198.628L86.1676 198.628L86.2346 198.734ZM89.6 198.734L89.533 198.839L89.5333 198.84L89.6 198.734ZM90.7264 200.017L90.614 200.072L90.6142 200.072L90.7264 200.017ZM90.7264 203.872L90.6144 203.817L90.6141 203.817L90.7264 203.872ZM89.6 205.151L89.5333 205.045L89.533 205.045L89.6 205.151ZM89.1199 204.255L89.0421 204.157L89.0421 204.157L89.1199 204.255ZM89.817 203.272L89.9341 203.315L89.9341 203.315L89.817 203.272ZM89.817 200.627L89.9343 200.583L89.9343 200.583L89.817 200.627ZM89.1199 199.634L89.1982 199.537L89.1982 199.537L89.1199 199.634ZM86.7193 199.634L86.641 199.537L86.641 199.537L86.7193 199.634ZM86.0222 200.627L85.9049 200.583L85.9049 200.583L86.0222 200.627ZM86.0222 203.272L85.905 203.315L85.905 203.315L86.0222 203.272ZM86.7193 204.255L86.797 204.157L86.797 204.157L86.7193 204.255ZM87.9196 205.483C87.3001 205.483 86.7621 205.336 86.3012 205.045L86.1679 205.256C86.6734 205.575 87.2588 205.733 87.9196 205.733V205.483ZM86.3016 205.045C85.8422 204.754 85.4817 204.345 85.2202 203.817L84.9961 203.927C85.2763 204.494 85.6667 204.938 86.1676 205.256L86.3016 205.045ZM85.2205 203.817C84.9626 203.289 84.8315 202.669 84.8315 201.951H84.5815C84.5815 202.699 84.7182 203.359 84.9959 203.927L85.2205 203.817ZM84.8315 201.951C84.8315 201.228 84.9626 200.603 85.2206 200.072L84.9957 199.963C84.7182 200.534 84.5815 201.198 84.5815 201.951H84.8315ZM85.2203 200.072C85.4819 199.54 85.8424 199.131 86.3016 198.839L86.1676 198.628C85.6665 198.946 85.2761 199.392 84.996 199.962L85.2203 200.072ZM86.3012 198.84C86.7621 198.549 87.3001 198.402 87.9196 198.402V198.152C87.2588 198.152 86.6734 198.309 86.1679 198.628L86.3012 198.84ZM87.9196 198.402C88.5391 198.402 89.0754 198.549 89.533 198.839L89.667 198.628C89.1644 198.309 88.5804 198.152 87.9196 198.152V198.402ZM89.5333 198.84C89.9954 199.131 90.3556 199.54 90.614 200.072L90.8388 199.963C90.5617 199.392 90.171 198.946 89.6667 198.628L89.5333 198.84ZM90.6142 200.072C90.8751 200.603 91.0077 201.228 91.0077 201.951H91.2577C91.2577 201.198 91.1194 200.533 90.8386 199.962L90.6142 200.072ZM91.0077 201.951C91.0077 202.669 90.8751 203.289 90.6144 203.817L90.8385 203.927C91.1193 203.359 91.2577 202.699 91.2577 201.951H91.0077ZM90.6141 203.817C90.3558 204.345 89.9955 204.753 89.5333 205.045L89.6667 205.256C90.1708 204.939 90.5615 204.494 90.8387 203.927L90.6141 203.817ZM89.533 205.045C89.0754 205.336 88.5391 205.483 87.9196 205.483V205.733C88.5804 205.733 89.1644 205.575 89.667 205.256L89.533 205.045ZM87.9196 204.754C88.4279 204.754 88.8572 204.623 89.1976 204.353L89.0421 204.157C88.7547 204.385 88.3838 204.504 87.9196 204.504V204.754ZM89.1976 204.353C89.5308 204.088 89.7761 203.741 89.9341 203.315L89.6998 203.228C89.5562 203.615 89.3367 203.923 89.0421 204.157L89.1976 204.353ZM89.9341 203.315C90.0906 202.894 90.1682 202.439 90.1682 201.951H89.9182C89.9182 202.412 89.8449 202.837 89.6998 203.228L89.9341 203.315ZM90.1682 201.951C90.1682 201.464 90.0906 201.008 89.9343 200.583L89.6997 200.67C89.845 201.064 89.9182 201.491 89.9182 201.951H90.1682ZM89.9343 200.583C89.7763 200.155 89.5312 199.804 89.1982 199.537L89.0416 199.731C89.3363 199.968 89.556 200.28 89.6997 200.67L89.9343 200.583ZM89.1982 199.537C88.8577 199.263 88.4282 199.13 87.9196 199.13V199.38C88.3835 199.38 88.7542 199.5 89.0416 199.731L89.1982 199.537ZM87.9196 199.13C87.4109 199.13 86.9814 199.263 86.641 199.537L86.7976 199.731C87.085 199.5 87.4557 199.38 87.9196 199.38V199.13ZM86.641 199.537C86.3079 199.804 86.0629 200.155 85.9049 200.583L86.1395 200.67C86.2832 200.28 86.5028 199.968 86.7976 199.731L86.641 199.537ZM85.9049 200.583C85.7486 201.008 85.671 201.464 85.671 201.951H85.921C85.921 201.491 85.9942 201.064 86.1395 200.67L85.9049 200.583ZM85.671 201.951C85.671 202.439 85.7486 202.894 85.905 203.315L86.1394 203.228C85.9942 202.837 85.921 202.412 85.921 201.951H85.671ZM85.905 203.315C86.0631 203.741 86.3083 204.088 86.6416 204.353L86.797 204.157C86.5024 203.923 86.2829 203.615 86.1394 203.228L85.905 203.315ZM86.6416 204.353C86.982 204.623 87.4113 204.754 87.9196 204.754V204.504C87.4553 204.504 87.0844 204.385 86.797 204.157L86.6416 204.353ZM93.8852 205.46V205.585H94.0102V205.46H93.8852ZM92.7957 205.46H92.6707V205.585H92.7957V205.46ZM92.7957 198.369V198.244H92.6707V198.369H92.7957ZM93.8483 198.369H93.9733V198.244H93.8483V198.369ZM93.8483 199.477H93.7233V199.602H93.8483V199.477ZM93.9406 199.477V199.602H94.0206L94.0541 199.529L93.9406 199.477ZM94.6977 198.609L94.7655 198.714L94.7662 198.714L94.6977 198.609ZM97.2691 198.572L97.2091 198.682L97.2098 198.682L97.2691 198.572ZM98.1093 199.459L97.9977 199.515L97.9979 199.515L98.1093 199.459ZM98.4094 205.46V205.585H98.5344V205.46H98.4094ZM97.3199 205.46H97.1949V205.585H97.3199V205.46ZM96.8859 199.726L96.794 199.811L96.7944 199.811L96.8859 199.726ZM94.7624 199.482L94.7021 199.372L94.7016 199.372L94.7624 199.482ZM94.1207 200.142L94.0108 200.082L94.0108 200.082L94.1207 200.142ZM93.7602 201.194V205.46H94.0102V201.194H93.7602ZM93.8852 205.335H92.7957V205.585H93.8852V205.335ZM92.9207 205.46V198.369H92.6707V205.46H92.9207ZM92.7957 198.494H93.8483V198.244H92.7957V198.494ZM93.7233 198.369V199.477H93.9733V198.369H93.7233ZM93.8483 199.602H93.9406V199.352H93.8483V199.602ZM94.0541 199.529C94.2102 199.191 94.4466 198.92 94.7655 198.714L94.6299 198.504C94.2718 198.735 94.0034 199.043 93.8271 199.425L94.0541 199.529ZM94.7662 198.714C95.0788 198.509 95.4899 198.402 96.0088 198.402V198.152C95.4567 198.152 94.9938 198.266 94.6293 198.505L94.7662 198.714ZM96.0088 198.402C96.4715 198.402 96.8703 198.497 97.2091 198.682L97.3291 198.463C96.9477 198.254 96.5063 198.152 96.0088 198.152V198.402ZM97.2098 198.682C97.5454 198.863 97.8081 199.139 97.9977 199.515L98.2209 199.402C98.0104 198.985 97.713 198.669 97.3284 198.462L97.2098 198.682ZM97.9979 199.515C98.1864 199.886 98.2844 200.364 98.2844 200.954H98.5344C98.5344 200.338 98.4324 199.819 98.2208 199.402L97.9979 199.515ZM98.2844 200.954V205.46H98.5344V200.954H98.2844ZM98.4094 205.335H97.3199V205.585H98.4094V205.335ZM97.4449 205.46V201.028H97.1949V205.46H97.4449ZM97.4449 201.028C97.4449 200.45 97.2943 199.982 96.9774 199.641L96.7944 199.811C97.0562 200.093 97.1949 200.493 97.1949 201.028H97.4449ZM96.9779 199.642C96.6606 199.297 96.2276 199.13 95.6949 199.13V199.38C96.1716 199.38 96.5327 199.527 96.794 199.811L96.9779 199.642ZM95.6949 199.13C95.3284 199.13 94.9965 199.21 94.7021 199.372L94.8226 199.591C95.0761 199.452 95.3658 199.38 95.6949 199.38V199.13ZM94.7016 199.372C94.4087 199.536 94.1783 199.773 94.0108 200.082L94.2305 200.201C94.3769 199.932 94.5744 199.729 94.8232 199.591L94.7016 199.372ZM94.0108 200.082C93.8417 200.394 93.7602 200.766 93.7602 201.194H94.0102C94.0102 200.798 94.0857 200.468 94.2305 200.201L94.0108 200.082ZM101.564 205.137L101.495 205.241L101.495 205.241L101.564 205.137ZM100.465 200.045L100.352 199.99L100.352 199.991L100.465 200.045ZM101.582 198.748L101.65 198.852L101.65 198.852L101.582 198.748ZM105.594 199.329L105.693 199.253L105.693 199.253L105.594 199.329ZM106.069 200.493V200.618H106.213L106.193 200.475L106.069 200.493ZM104.98 200.493L104.859 200.524L104.883 200.618H104.98V200.493ZM104.426 199.634L104.343 199.727L104.344 199.728L104.426 199.634ZM102.164 199.588L102.235 199.691L102.235 199.691L102.164 199.588ZM101.42 200.516L101.306 200.465L101.306 200.465L101.42 200.516ZM101.416 203.346L101.301 203.394L101.301 203.395L101.416 203.346ZM102.154 204.292L102.082 204.394L102.083 204.394L102.154 204.292ZM104.052 204.481L104.003 204.366L104.003 204.366L104.052 204.481ZM104.638 204.057L104.733 204.138L104.733 204.138L104.638 204.057ZM104.98 203.392V203.267H104.883L104.859 203.36L104.98 203.392ZM106.069 203.392L106.193 203.41L106.214 203.267H106.069V203.392ZM105.612 204.523L105.511 204.449L105.511 204.45L105.612 204.523ZM104.657 205.317L104.712 205.429L104.712 205.429L104.657 205.317ZM103.281 205.483C102.636 205.483 102.089 205.331 101.632 205.032L101.495 205.241C101.999 205.571 102.596 205.733 103.281 205.733V205.483ZM101.632 205.032C101.172 204.732 100.818 204.318 100.569 203.787L100.342 203.893C100.61 204.463 100.994 204.914 101.495 205.241L101.632 205.032ZM100.569 203.787C100.319 203.255 100.193 202.644 100.193 201.951H99.9428C99.9428 202.675 100.075 203.323 100.342 203.893L100.569 203.787ZM100.193 201.951C100.193 201.247 100.322 200.63 100.578 200.099L100.352 199.991C100.078 200.561 99.9428 201.216 99.9428 201.951H100.193ZM100.577 200.099C100.836 199.564 101.194 199.15 101.65 198.852L101.514 198.643C101.016 198.967 100.629 199.418 100.352 199.99L100.577 200.099ZM101.65 198.852C102.108 198.553 102.644 198.402 103.262 198.402V198.152C102.601 198.152 102.016 198.314 101.514 198.643L101.65 198.852ZM103.262 198.402C103.745 198.402 104.176 198.491 104.558 198.667L104.663 198.44C104.244 198.247 103.777 198.152 103.262 198.152V198.402ZM104.558 198.667C104.941 198.844 105.252 199.09 105.495 199.405L105.693 199.253C105.424 198.904 105.08 198.633 104.663 198.44L104.558 198.667ZM105.495 199.405C105.736 199.72 105.887 200.087 105.945 200.51L106.193 200.475C106.129 200.012 105.962 199.604 105.693 199.253L105.495 199.405ZM106.069 200.368H104.98V200.618H106.069V200.368ZM105.101 200.462C105.011 200.111 104.81 199.803 104.508 199.54L104.344 199.728C104.614 199.963 104.783 200.228 104.859 200.524L105.101 200.462ZM104.509 199.541C104.197 199.263 103.783 199.13 103.281 199.13V199.38C103.739 199.38 104.088 199.5 104.343 199.727L104.509 199.541ZM103.281 199.13C102.833 199.13 102.435 199.248 102.093 199.485L102.235 199.691C102.532 199.485 102.879 199.38 103.281 199.38V199.13ZM102.093 199.485C101.754 199.718 101.493 200.047 101.306 200.465L101.535 200.567C101.705 200.185 101.939 199.895 102.235 199.691L102.093 199.485ZM101.306 200.465C101.122 200.881 101.032 201.366 101.032 201.915H101.282C101.282 201.392 101.368 200.944 101.535 200.566L101.306 200.465ZM101.032 201.915C101.032 202.475 101.121 202.97 101.301 203.394L101.531 203.297C101.367 202.909 101.282 202.45 101.282 201.915H101.032ZM101.301 203.395C101.484 203.82 101.744 204.154 102.082 204.394L102.227 204.19C101.931 203.98 101.698 203.684 101.531 203.296L101.301 203.395ZM102.083 204.394C102.426 204.635 102.827 204.754 103.281 204.754V204.504C102.873 204.504 102.523 204.398 102.226 204.19L102.083 204.394ZM103.281 204.754C103.579 204.754 103.853 204.702 104.101 204.596L104.003 204.366C103.789 204.457 103.549 204.504 103.281 204.504V204.754ZM104.101 204.596C104.349 204.491 104.56 204.338 104.733 204.138L104.544 203.975C104.396 204.145 104.217 204.275 104.003 204.366L104.101 204.596ZM104.733 204.138C104.906 203.938 105.029 203.699 105.101 203.423L104.859 203.36C104.796 203.602 104.69 203.806 104.544 203.975L104.733 204.138ZM104.98 203.517H106.069V203.267H104.98V203.517ZM105.946 203.374C105.887 203.773 105.742 204.131 105.511 204.449L105.713 204.596C105.969 204.244 106.129 203.848 106.193 203.41L105.946 203.374ZM105.511 204.45C105.284 204.764 104.981 205.016 104.601 205.205L104.712 205.429C105.126 205.224 105.461 204.946 105.714 204.596L105.511 204.45ZM104.601 205.205C104.228 205.389 103.789 205.483 103.281 205.483V205.733C103.82 205.733 104.298 205.633 104.712 205.429L104.601 205.205ZM107.662 205.46H107.537V205.585H107.662V205.46ZM107.662 198.369V198.244H107.537V198.369H107.662ZM108.751 198.369H108.876V198.244H108.751V198.369ZM108.751 205.46V205.585H108.876V205.46H108.751ZM107.667 196.97L107.58 197.061L107.581 197.061L107.667 196.97ZM107.667 195.927L107.581 195.836L107.58 195.837L107.667 195.927ZM108.761 195.927L108.674 196.017L108.675 196.018L108.761 195.927ZM108.761 196.97L108.675 196.879L108.674 196.88L108.761 196.97ZM107.787 205.46V198.369H107.537V205.46H107.787ZM107.662 198.494H108.751V198.244H107.662V198.494ZM108.626 198.369V205.46H108.876V198.369H108.626ZM108.751 205.335H107.662V205.585H108.751V205.335ZM108.216 197.062C108.035 197.062 107.883 197.002 107.752 196.879L107.581 197.061C107.758 197.228 107.972 197.312 108.216 197.312V197.062ZM107.753 196.88C107.626 196.758 107.565 196.617 107.565 196.449H107.315C107.315 196.687 107.405 196.893 107.58 197.06L107.753 196.88ZM107.565 196.449C107.565 196.281 107.626 196.139 107.753 196.017L107.58 195.837C107.405 196.004 107.315 196.21 107.315 196.449H107.565ZM107.752 196.018C107.883 195.895 108.035 195.835 108.216 195.835V195.585C107.972 195.585 107.758 195.669 107.581 195.836L107.752 196.018ZM108.216 195.835C108.397 195.835 108.547 195.895 108.674 196.017L108.847 195.837C108.673 195.669 108.46 195.585 108.216 195.585V195.835ZM108.675 196.018C108.805 196.14 108.866 196.282 108.866 196.449H109.116C109.116 196.209 109.024 196.003 108.846 195.836L108.675 196.018ZM108.866 196.449C108.866 196.616 108.805 196.757 108.675 196.879L108.846 197.061C109.024 196.894 109.116 196.688 109.116 196.449H108.866ZM108.674 196.88C108.547 197.002 108.397 197.062 108.216 197.062V197.312C108.46 197.312 108.673 197.228 108.847 197.06L108.674 196.88ZM111.952 205.155L111.886 205.262L111.887 205.262L111.952 205.155ZM110.812 203.881L110.699 203.936L110.699 203.936L110.812 203.881ZM110.812 200.049L110.699 199.995L110.699 199.996L110.812 200.049ZM111.929 198.748L111.997 198.852L111.997 198.852L111.929 198.748ZM114.703 198.461L114.744 198.343L114.744 198.343L114.703 198.461ZM115.687 199.062L115.601 199.153L115.602 199.153L115.687 199.062ZM116.393 200.151L116.509 200.106L116.509 200.106L116.393 200.151ZM116.656 202.284V202.409H116.781V202.284H116.656ZM111.19 202.284H111.065V202.409H111.19V202.284ZM111.19 201.342V201.217H111.065V201.342H111.19ZM115.548 201.342V201.467H115.673V201.342H115.548ZM115.308 200.271L115.196 200.327L115.197 200.328L115.308 200.271ZM114.634 199.528L114.568 199.634L114.568 199.634L114.634 199.528ZM112.483 199.579L112.553 199.682L112.553 199.682L112.483 199.579ZM111.758 200.41L111.646 200.354L111.646 200.354L111.758 200.41ZM111.781 203.498L111.669 203.554L111.67 203.555L111.781 203.498ZM112.561 204.343L112.498 204.451L112.499 204.451L112.561 204.343ZM114.495 204.509L114.536 204.627L114.537 204.627L114.495 204.509ZM115.1 204.14L115.187 204.23L115.188 204.229L115.1 204.14ZM115.493 203.521L115.526 203.401L115.416 203.37L115.376 203.477L115.493 203.521ZM116.545 203.817L116.665 203.854L116.703 203.731L116.579 203.696L116.545 203.817ZM115.987 204.758L116.076 204.846L116.077 204.845L115.987 204.758ZM115.017 205.386L115.062 205.503L115.063 205.503L115.017 205.386ZM113.092 197.409L112.988 197.479L113.026 197.534H113.092V197.409ZM111.652 195.267V195.142H111.417L111.548 195.337L111.652 195.267ZM112.926 195.267L113.037 195.209L113.001 195.142H112.926V195.267ZM114.052 197.409V197.534H114.259L114.163 197.351L114.052 197.409ZM113.72 205.483C113.055 205.483 112.489 205.336 112.017 205.049L111.887 205.262C112.405 205.578 113.018 205.733 113.72 205.733V205.483ZM112.018 205.049C111.546 204.757 111.182 204.351 110.924 203.826L110.699 203.936C110.977 204.501 111.373 204.944 111.886 205.262L112.018 205.049ZM110.924 203.827C110.669 203.299 110.54 202.681 110.54 201.97H110.29C110.29 202.711 110.425 203.368 110.699 203.936L110.924 203.827ZM110.54 201.97C110.54 201.259 110.669 200.638 110.924 200.103L110.699 199.996C110.425 200.569 110.29 201.228 110.29 201.97H110.54ZM110.924 200.104C111.183 199.565 111.541 199.15 111.997 198.852L111.86 198.643C111.363 198.967 110.976 199.419 110.699 199.995L110.924 200.104ZM111.997 198.852C112.455 198.553 112.99 198.402 113.609 198.402V198.152C112.948 198.152 112.363 198.314 111.86 198.643L111.997 198.852ZM113.609 198.402C113.964 198.402 114.315 198.461 114.663 198.58L114.744 198.343C114.371 198.216 113.993 198.152 113.609 198.152V198.402ZM114.663 198.58C115.005 198.697 115.318 198.887 115.601 199.153L115.772 198.97C115.465 198.682 115.122 198.472 114.744 198.343L114.663 198.58ZM115.602 199.153C115.881 199.412 116.106 199.758 116.276 200.196L116.509 200.106C116.329 199.639 116.083 199.259 115.772 198.97L115.602 199.153ZM116.276 200.196C116.445 200.63 116.531 201.171 116.531 201.822H116.781C116.781 201.15 116.692 200.577 116.509 200.106L116.276 200.196ZM116.531 201.822V202.284H116.781V201.822H116.531ZM116.656 202.159H111.19V202.409H116.656V202.159ZM111.315 202.284V201.342H111.065V202.284H111.315ZM111.19 201.467H115.548V201.217H111.19V201.467ZM115.673 201.342C115.673 200.925 115.59 200.548 115.419 200.214L115.197 200.328C115.347 200.622 115.423 200.959 115.423 201.342H115.673ZM115.42 200.215C115.253 199.881 115.012 199.616 114.7 199.422L114.568 199.634C114.84 199.803 115.049 200.033 115.196 200.327L115.42 200.215ZM114.7 199.422C114.388 199.226 114.023 199.13 113.609 199.13V199.38C113.983 199.38 114.301 199.466 114.568 199.634L114.7 199.422ZM113.609 199.13C113.154 199.13 112.753 199.244 112.412 199.475L112.553 199.682C112.847 199.482 113.197 199.38 113.609 199.38V199.13ZM112.413 199.475C112.081 199.7 111.825 199.993 111.646 200.354L111.87 200.465C112.03 200.143 112.257 199.882 112.553 199.682L112.413 199.475ZM111.646 200.354C111.468 200.713 111.379 201.099 111.379 201.508H111.629C111.629 201.136 111.709 200.789 111.87 200.465L111.646 200.354ZM111.379 201.508V202.136H111.629V201.508H111.379ZM111.379 202.136C111.379 202.686 111.474 203.16 111.669 203.554L111.893 203.442C111.719 203.092 111.629 202.658 111.629 202.136H111.379ZM111.67 203.555C111.867 203.944 112.143 204.244 112.498 204.451L112.624 204.235C112.314 204.054 112.07 203.791 111.892 203.441L111.67 203.555ZM112.499 204.451C112.853 204.654 113.261 204.754 113.72 204.754V204.504C113.298 204.504 112.934 204.413 112.623 204.234L112.499 204.451ZM113.72 204.754C114.018 204.754 114.29 204.712 114.536 204.627L114.455 204.391C114.239 204.466 113.995 204.504 113.72 204.504V204.754ZM114.537 204.627C114.787 204.538 115.004 204.406 115.187 204.23L115.014 204.05C114.858 204.2 114.672 204.314 114.454 204.391L114.537 204.627ZM115.188 204.229C115.371 204.049 115.512 203.826 115.61 203.565L115.376 203.477C115.289 203.708 115.168 203.898 115.013 204.05L115.188 204.229ZM115.459 203.641L116.511 203.937L116.579 203.696L115.526 203.401L115.459 203.641ZM116.426 203.779C116.321 204.118 116.145 204.415 115.897 204.671L116.077 204.845C116.352 204.56 116.548 204.229 116.665 203.854L116.426 203.779ZM115.897 204.671C115.649 204.925 115.341 205.125 114.972 205.27L115.063 205.503C115.462 205.346 115.801 205.127 116.076 204.846L115.897 204.671ZM114.972 205.269C114.604 205.411 114.187 205.483 113.72 205.483V205.733C114.213 205.733 114.661 205.657 115.062 205.503L114.972 205.269ZM113.196 197.339L111.755 195.197L111.548 195.337L112.988 197.479L113.196 197.339ZM111.652 195.392H112.926V195.142H111.652V195.392ZM112.815 195.325L113.942 197.467L114.163 197.351L113.037 195.209L112.815 195.325ZM114.052 197.284H113.092V197.534H114.052V197.284ZM118.313 205.46H118.188V205.585H118.313V205.46ZM118.313 198.369V198.244H118.188V198.369H118.313ZM119.366 198.369H119.491V198.244H119.366V198.369ZM119.366 199.44H119.241V199.565H119.366V199.44ZM119.44 199.44V199.565H119.527L119.557 199.483L119.44 199.44ZM120.141 198.586L120.074 198.481L120.074 198.481L120.141 198.586ZM121.859 198.277H121.984V198.164L121.871 198.152L121.859 198.277ZM121.859 199.385L121.828 199.506L121.984 199.545V199.385H121.859ZM121.605 199.343L121.584 199.467L121.588 199.467L121.605 199.343ZM120.271 199.528L120.329 199.638L120.33 199.638L120.271 199.528ZM119.634 200.119L119.527 200.053L119.527 200.053L119.634 200.119ZM119.403 205.46V205.585H119.528V205.46H119.403ZM118.438 205.46V198.369H118.188V205.46H118.438ZM118.313 198.494H119.366V198.244H118.313V198.494ZM119.241 198.369V199.44H119.491V198.369H119.241ZM119.366 199.565H119.44V199.315H119.366V199.565ZM119.557 199.483C119.676 199.16 119.892 198.896 120.209 198.691L120.074 198.481C119.714 198.713 119.462 199.019 119.322 199.397L119.557 199.483ZM120.209 198.691C120.526 198.486 120.884 198.383 121.286 198.383V198.133C120.839 198.133 120.434 198.249 120.074 198.481L120.209 198.691ZM121.286 198.383C121.365 198.383 121.464 198.385 121.583 198.388L121.59 198.138C121.469 198.135 121.368 198.133 121.286 198.133V198.383ZM121.583 198.388C121.702 198.391 121.79 198.395 121.846 198.401L121.871 198.152C121.805 198.146 121.71 198.141 121.59 198.138L121.583 198.388ZM121.734 198.277V199.385H121.984V198.277H121.734ZM121.889 199.263C121.844 199.252 121.753 199.238 121.622 199.219L121.588 199.467C121.722 199.486 121.799 199.499 121.828 199.506L121.889 199.263ZM121.625 199.22C121.489 199.197 121.345 199.186 121.194 199.186V199.436C121.332 199.436 121.463 199.446 121.584 199.466L121.625 199.22ZM121.194 199.186C120.831 199.186 120.503 199.262 120.212 199.418L120.33 199.638C120.58 199.504 120.867 199.436 121.194 199.436V199.186ZM120.212 199.417C119.925 199.569 119.696 199.781 119.527 200.053L119.74 200.185C119.885 199.952 120.081 199.77 120.329 199.638L120.212 199.417ZM119.527 200.053C119.36 200.324 119.278 200.632 119.278 200.973H119.528C119.528 200.674 119.599 200.412 119.74 200.184L119.527 200.053ZM119.278 200.973V205.46H119.528V200.973H119.278ZM119.403 205.335H118.313V205.585H119.403V205.335ZM124.139 205.155L124.074 205.262L124.074 205.262L124.139 205.155ZM122.999 203.881L122.886 203.936L122.887 203.936L122.999 203.881ZM122.999 200.049L122.886 199.995L122.886 199.996L122.999 200.049ZM124.116 198.748L124.184 198.852L124.185 198.852L124.116 198.748ZM126.891 198.461L126.931 198.343L126.931 198.343L126.891 198.461ZM127.874 199.062L127.789 199.153L127.789 199.153L127.874 199.062ZM128.58 200.151L128.697 200.106L128.697 200.106L128.58 200.151ZM128.844 202.284V202.409H128.969V202.284H128.844ZM123.378 202.284H123.253V202.409H123.378V202.284ZM123.378 201.342V201.217H123.253V201.342H123.378ZM127.736 201.342V201.467H127.861V201.342H127.736ZM127.495 200.271L127.384 200.327L127.384 200.328L127.495 200.271ZM126.821 199.528L126.755 199.634L126.756 199.634L126.821 199.528ZM124.67 199.579L124.74 199.682L124.74 199.682L124.67 199.579ZM123.945 200.41L123.833 200.354L123.833 200.354L123.945 200.41ZM123.969 203.498L123.857 203.554L123.857 203.555L123.969 203.498ZM124.749 204.343L124.686 204.451L124.686 204.451L124.749 204.343ZM126.683 204.509L126.724 204.627L126.725 204.627L126.683 204.509ZM127.288 204.14L127.374 204.23L127.375 204.229L127.288 204.14ZM127.68 203.521L127.714 203.401L127.603 203.37L127.563 203.477L127.68 203.521ZM128.733 203.817L128.852 203.854L128.89 203.731L128.766 203.696L128.733 203.817ZM128.174 204.758L128.264 204.846L128.264 204.845L128.174 204.758ZM127.205 205.386L127.249 205.503L127.25 205.503L127.205 205.386ZM125.907 205.483C125.243 205.483 124.677 205.336 124.204 205.049L124.074 205.262C124.593 205.578 125.205 205.733 125.907 205.733V205.483ZM124.205 205.049C123.734 204.757 123.369 204.351 123.111 203.826L122.887 203.936C123.164 204.501 123.56 204.944 124.074 205.262L124.205 205.049ZM123.112 203.827C122.857 203.299 122.727 202.681 122.727 201.97H122.477C122.477 202.711 122.612 203.368 122.886 203.936L123.112 203.827ZM122.727 201.97C122.727 201.259 122.857 200.638 123.112 200.103L122.886 199.996C122.612 200.569 122.477 201.228 122.477 201.97H122.727ZM123.112 200.104C123.37 199.565 123.728 199.15 124.184 198.852L124.048 198.643C123.55 198.967 123.163 199.419 122.886 199.995L123.112 200.104ZM124.185 198.852C124.642 198.553 125.178 198.402 125.797 198.402V198.152C125.135 198.152 124.551 198.314 124.048 198.643L124.185 198.852ZM125.797 198.402C126.152 198.402 126.503 198.461 126.85 198.58L126.931 198.343C126.558 198.216 126.18 198.152 125.797 198.152V198.402ZM126.85 198.58C127.193 198.697 127.505 198.887 127.789 199.153L127.96 198.97C127.652 198.682 127.309 198.472 126.931 198.343L126.85 198.58ZM127.789 199.153C128.068 199.412 128.294 199.758 128.464 200.196L128.697 200.106C128.516 199.639 128.271 199.259 127.959 198.97L127.789 199.153ZM128.464 200.196C128.632 200.63 128.719 201.171 128.719 201.822H128.969C128.969 201.15 128.88 200.577 128.697 200.106L128.464 200.196ZM128.719 201.822V202.284H128.969V201.822H128.719ZM128.844 202.159H123.378V202.409H128.844V202.159ZM123.503 202.284V201.342H123.253V202.284H123.503ZM123.378 201.467H127.736V201.217H123.378V201.467ZM127.861 201.342C127.861 200.925 127.777 200.548 127.607 200.214L127.384 200.328C127.534 200.622 127.611 200.959 127.611 201.342H127.861ZM127.607 200.215C127.44 199.881 127.2 199.616 126.887 199.422L126.756 199.634C127.028 199.803 127.237 200.033 127.384 200.327L127.607 200.215ZM126.888 199.422C126.576 199.226 126.21 199.13 125.797 199.13V199.38C126.171 199.38 126.489 199.466 126.755 199.634L126.888 199.422ZM125.797 199.13C125.341 199.13 124.94 199.244 124.6 199.475L124.74 199.682C125.034 199.482 125.384 199.38 125.797 199.38V199.13ZM124.6 199.475C124.268 199.7 124.012 199.993 123.833 200.354L124.057 200.465C124.217 200.143 124.444 199.882 124.74 199.682L124.6 199.475ZM123.833 200.354C123.655 200.713 123.567 201.099 123.567 201.508H123.817C123.817 201.136 123.897 200.789 124.057 200.465L123.833 200.354ZM123.567 201.508V202.136H123.817V201.508H123.567ZM123.567 202.136C123.567 202.686 123.661 203.16 123.857 203.554L124.08 203.442C123.906 203.092 123.817 202.658 123.817 202.136H123.567ZM123.857 203.555C124.055 203.944 124.331 204.244 124.686 204.451L124.812 204.235C124.502 204.054 124.258 203.791 124.08 203.441L123.857 203.555ZM124.686 204.451C125.04 204.654 125.449 204.754 125.907 204.754V204.504C125.486 204.504 125.122 204.413 124.811 204.234L124.686 204.451ZM125.907 204.754C126.205 204.754 126.478 204.712 126.724 204.627L126.642 204.391C126.426 204.466 126.182 204.504 125.907 204.504V204.754ZM126.725 204.627C126.975 204.538 127.192 204.406 127.374 204.23L127.201 204.05C127.045 204.2 126.859 204.314 126.641 204.391L126.725 204.627ZM127.375 204.229C127.559 204.049 127.699 203.826 127.797 203.565L127.563 203.477C127.476 203.708 127.355 203.898 127.2 204.05L127.375 204.229ZM127.646 203.641L128.699 203.937L128.766 203.696L127.714 203.401L127.646 203.641ZM128.613 203.779C128.508 204.118 128.332 204.415 128.084 204.671L128.264 204.845C128.539 204.56 128.735 204.229 128.852 203.854L128.613 203.779ZM128.085 204.671C127.837 204.925 127.529 205.125 127.159 205.27L127.25 205.503C127.65 205.346 127.988 205.127 128.264 204.846L128.085 204.671ZM127.16 205.269C126.792 205.411 126.375 205.483 125.907 205.483V205.733C126.4 205.733 126.848 205.657 127.249 205.503L127.16 205.269ZM134.305 205.46H134.18V205.585H134.305V205.46ZM134.305 196.005V195.88H134.18V196.005H134.305ZM139.318 196.384L139.26 196.494L139.26 196.495L139.318 196.384ZM140.371 197.413L140.26 197.471L140.26 197.471L140.371 197.413ZM140.371 200.386L140.26 200.328L140.26 200.328L140.371 200.386ZM139.323 201.402L139.38 201.513L139.381 201.513L139.323 201.402ZM134.933 201.767H134.808V201.892H134.933V201.767ZM134.933 200.733V200.608H134.808V200.733H134.933ZM138.7 200.511L138.646 200.398L138.646 200.398L138.7 200.511ZM139.374 199.883L139.263 199.826L139.262 199.826L139.374 199.883ZM138.695 197.257L138.639 197.368L138.64 197.369L138.695 197.257ZM135.45 197.021V196.896H135.325V197.021H135.45ZM135.45 205.46V205.585H135.575V205.46H135.45ZM138.755 201.213L138.865 201.153L138.829 201.088H138.755V201.213ZM141.082 205.46V205.585H141.293L141.191 205.4L141.082 205.46ZM139.752 205.46L139.642 205.519L139.678 205.585H139.752V205.46ZM137.462 201.213V201.088H137.253L137.352 201.272L137.462 201.213ZM134.43 205.46V196.005H134.18V205.46H134.43ZM134.305 196.13H137.499V195.88H134.305V196.13ZM137.499 196.13C138.225 196.13 138.809 196.255 139.26 196.494L139.377 196.274C138.879 196.009 138.251 195.88 137.499 195.88V196.13ZM139.26 196.495C139.714 196.733 140.045 197.059 140.26 197.471L140.482 197.356C140.241 196.894 139.871 196.533 139.376 196.273L139.26 196.495ZM140.26 197.471C140.477 197.888 140.587 198.365 140.587 198.905H140.837C140.837 198.33 140.72 197.813 140.482 197.356L140.26 197.471ZM140.587 198.905C140.587 199.444 140.477 199.918 140.26 200.328L140.481 200.445C140.72 199.994 140.837 199.479 140.837 198.905H140.587ZM140.26 200.328C140.045 200.735 139.716 201.056 139.265 201.291L139.381 201.513C139.872 201.256 140.241 200.9 140.481 200.445L140.26 200.328ZM139.266 201.291C138.818 201.522 138.238 201.642 137.518 201.642V201.892C138.263 201.892 138.886 201.768 139.38 201.513L139.266 201.291ZM137.518 201.642H134.933V201.892H137.518V201.642ZM135.058 201.767V200.733H134.808V201.767H135.058ZM134.933 200.858H137.481V200.608H134.933V200.858ZM137.481 200.858C137.996 200.858 138.423 200.783 138.754 200.624L138.646 200.398C138.361 200.535 137.975 200.608 137.481 200.608V200.858ZM138.753 200.624C139.086 200.466 139.332 200.239 139.485 199.94L139.262 199.826C139.138 200.07 138.935 200.261 138.646 200.398L138.753 200.624ZM139.485 199.941C139.637 199.645 139.711 199.299 139.711 198.905H139.461C139.461 199.268 139.393 199.573 139.263 199.826L139.485 199.941ZM139.711 198.905C139.711 198.51 139.637 198.16 139.485 197.856L139.262 197.968C139.393 198.231 139.461 198.542 139.461 198.905H139.711ZM139.485 197.856C139.331 197.546 139.083 197.309 138.751 197.144L138.64 197.369C138.929 197.512 139.134 197.712 139.262 197.968L139.485 197.856ZM138.751 197.145C138.417 196.976 137.984 196.896 137.462 196.896V197.146C137.962 197.146 138.352 197.223 138.639 197.368L138.751 197.145ZM137.462 196.896H135.45V197.146H137.462V196.896ZM135.325 197.021V205.46H135.575V197.021H135.325ZM135.45 205.335H134.305V205.585H135.45V205.335ZM138.645 201.273L140.972 205.52L141.191 205.4L138.865 201.153L138.645 201.273ZM141.082 205.335H139.752V205.585H141.082V205.335ZM139.862 205.401L137.572 201.154L137.352 201.272L139.642 205.519L139.862 205.401ZM137.462 201.338H138.755V201.088H137.462V201.338ZM146.941 198.369V198.244H146.816V198.369H146.941ZM148.031 198.369H148.156V198.244H148.031V198.369ZM148.031 205.46V205.585H148.156V205.46H148.031ZM146.941 205.46H146.816V205.585H146.941V205.46ZM146.941 204.26H147.066V204.135H146.941V204.26ZM146.867 204.26V204.135H146.787L146.754 204.207L146.867 204.26ZM146.092 205.178L146.164 205.28L146.165 205.28L146.092 205.178ZM143.58 205.261L143.518 205.37L143.519 205.37L143.58 205.261ZM142.768 204.375L142.656 204.431L142.656 204.431L142.768 204.375ZM142.473 198.369V198.244H142.348V198.369H142.473ZM143.562 198.369H143.687V198.244H143.562V198.369ZM143.996 204.038L143.905 204.124L143.905 204.124L143.996 204.038ZM145.939 204.292L145.885 204.18L145.884 204.18L145.939 204.292ZM146.65 203.655L146.547 203.585L146.546 203.586L146.65 203.655ZM147.066 202.561V198.369H146.816V202.561H147.066ZM146.941 198.494H148.031V198.244H146.941V198.494ZM147.906 198.369V205.46H148.156V198.369H147.906ZM148.031 205.335H146.941V205.585H148.031V205.335ZM147.066 205.46V204.26H146.816V205.46H147.066ZM146.941 204.135H146.867V204.385H146.941V204.135ZM146.754 204.207C146.598 204.546 146.354 204.836 146.019 205.077L146.165 205.28C146.532 205.016 146.805 204.693 146.981 204.312L146.754 204.207ZM146.019 205.076C145.694 205.307 145.278 205.427 144.762 205.427V205.677C145.317 205.677 145.788 205.548 146.164 205.28L146.019 205.076ZM144.762 205.427C144.338 205.427 143.966 205.335 143.642 205.153L143.519 205.37C143.885 205.576 144.3 205.677 144.762 205.677V205.427ZM143.642 205.153C143.322 204.97 143.067 204.694 142.88 204.319L142.656 204.431C142.863 204.845 143.15 205.159 143.518 205.37L143.642 205.153ZM142.88 204.32C142.694 203.945 142.598 203.465 142.598 202.875H142.348C142.348 203.491 142.448 204.011 142.656 204.431L142.88 204.32ZM142.598 202.875V198.369H142.348V202.875H142.598ZM142.473 198.494H143.562V198.244H142.473V198.494ZM143.437 198.369V202.801H143.687V198.369H143.437ZM143.437 202.801C143.437 203.342 143.589 203.788 143.905 204.124L144.087 203.953C143.824 203.673 143.687 203.294 143.687 202.801H143.437ZM143.905 204.124C144.223 204.459 144.629 204.625 145.113 204.625V204.375C144.692 204.375 144.354 204.233 144.087 203.952L143.905 204.124ZM145.113 204.625C145.406 204.625 145.7 204.55 145.995 204.404L145.884 204.18C145.619 204.311 145.362 204.375 145.113 204.375V204.625ZM145.994 204.404C146.299 204.255 146.552 204.027 146.754 203.724L146.546 203.586C146.367 203.855 146.146 204.052 145.885 204.18L145.994 204.404ZM146.754 203.725C146.965 203.413 147.066 203.022 147.066 202.561H146.816C146.816 202.986 146.723 203.324 146.547 203.585L146.754 203.725ZM150.026 205.46H149.901V205.585H150.026V205.46ZM150.026 198.369V198.244H149.901V198.369H150.026ZM151.079 198.369H151.204V198.244H151.079V198.369ZM151.079 199.44H150.954V199.565H151.079V199.44ZM151.153 199.44V199.565H151.24L151.27 199.483L151.153 199.44ZM151.854 198.586L151.787 198.481L151.787 198.481L151.854 198.586ZM153.572 198.277H153.697V198.164L153.584 198.152L153.572 198.277ZM153.572 199.385L153.541 199.506L153.697 199.545V199.385H153.572ZM153.318 199.343L153.297 199.467L153.3 199.467L153.318 199.343ZM151.984 199.528L152.042 199.638L152.042 199.638L151.984 199.528ZM151.347 200.119L151.24 200.053L151.24 200.053L151.347 200.119ZM151.116 205.46V205.585H151.241V205.46H151.116ZM150.151 205.46V198.369H149.901V205.46H150.151ZM150.026 198.494H151.079V198.244H150.026V198.494ZM150.954 198.369V199.44H151.204V198.369H150.954ZM151.079 199.565H151.153V199.315H151.079V199.565ZM151.27 199.483C151.389 199.16 151.604 198.896 151.922 198.691L151.787 198.481C151.427 198.713 151.175 199.019 151.035 199.397L151.27 199.483ZM151.922 198.691C152.239 198.486 152.597 198.383 152.999 198.383V198.133C152.552 198.133 152.146 198.249 151.787 198.481L151.922 198.691ZM152.999 198.383C153.078 198.383 153.177 198.385 153.296 198.388L153.302 198.138C153.182 198.135 153.081 198.133 152.999 198.133V198.383ZM153.296 198.388C153.415 198.391 153.502 198.395 153.559 198.401L153.584 198.152C153.518 198.146 153.423 198.141 153.302 198.138L153.296 198.388ZM153.447 198.277V199.385H153.697V198.277H153.447ZM153.602 199.263C153.557 199.252 153.466 199.238 153.335 199.219L153.3 199.467C153.435 199.486 153.512 199.499 153.541 199.506L153.602 199.263ZM153.338 199.22C153.202 199.197 153.058 199.186 152.907 199.186V199.436C153.045 199.436 153.175 199.446 153.297 199.466L153.338 199.22ZM152.907 199.186C152.544 199.186 152.216 199.262 151.925 199.418L152.042 199.638C152.293 199.504 152.58 199.436 152.907 199.436V199.186ZM151.925 199.417C151.638 199.569 151.409 199.781 151.24 200.053L151.453 200.185C151.598 199.952 151.793 199.77 152.042 199.638L151.925 199.417ZM151.24 200.053C151.073 200.324 150.991 200.632 150.991 200.973H151.241C151.241 200.674 151.312 200.412 151.453 200.184L151.24 200.053ZM150.991 200.973V205.46H151.241V200.973H150.991ZM151.116 205.335H150.026V205.585H151.116V205.335ZM155.726 205.372L155.673 205.485L155.674 205.486L155.726 205.372ZM154.854 204.629L154.75 204.698L154.75 204.698L154.854 204.629ZM154.771 202.459L154.876 202.526L154.877 202.526L154.771 202.459ZM156.299 201.536L156.326 201.658L156.326 201.658L156.299 201.536ZM157.282 201.361L157.266 201.237L157.266 201.237L157.282 201.361ZM158.33 201.236L158.343 201.36L158.344 201.36L158.33 201.236ZM158.921 201.084L158.86 200.975L158.859 200.975L158.921 201.084ZM158.736 199.616L158.647 199.703L158.647 199.703L158.736 199.616ZM156.391 199.579L156.467 199.678L156.467 199.678L156.391 199.579ZM155.768 200.308L155.726 200.426L155.833 200.464L155.881 200.361L155.768 200.308ZM154.734 199.939L154.619 199.889L154.567 200.012L154.692 200.056L154.734 199.939ZM155.473 198.932L155.549 199.031L155.55 199.031L155.473 198.932ZM156.488 198.424L156.52 198.545L156.52 198.545L156.488 198.424ZM158.362 198.36L158.339 198.483L158.341 198.483L158.362 198.36ZM159.226 198.688L159.161 198.795L159.162 198.795L159.226 198.688ZM159.923 199.44L159.813 199.5L159.813 199.5L159.923 199.44ZM160.2 205.46V205.585H160.325V205.46H160.2ZM159.11 205.46H158.985V205.585H159.11V205.46ZM159.11 204.5H159.235V204.375H159.11V204.5ZM159.055 204.5V204.375H158.976L158.942 204.446L159.055 204.5ZM158.686 204.994L158.775 205.081L158.775 205.081L158.686 204.994ZM157.998 205.442L157.948 205.327L157.998 205.442ZM158.205 204.394L158.144 204.285L158.143 204.285L158.205 204.394ZM158.879 203.738L158.771 203.676L158.771 203.677L158.879 203.738ZM159.11 201.896H159.235V201.551L159.014 201.816L159.11 201.896ZM158.806 202.048L158.839 202.169L158.841 202.168L158.806 202.048ZM158.27 202.164L158.289 202.287L158.291 202.287L158.27 202.164ZM157.684 202.247L157.698 202.371L157.7 202.371L157.684 202.247ZM157.227 202.302L157.243 202.426L157.243 202.426L157.227 202.302ZM156.433 202.482L156.472 202.601L156.473 202.601L156.433 202.482ZM155.842 202.847L155.75 202.762L155.75 202.762L155.842 202.847ZM156.04 204.361L155.969 204.464L155.97 204.465L156.04 204.361ZM156.95 205.501C156.516 205.501 156.127 205.42 155.779 205.259L155.674 205.486C156.058 205.663 156.484 205.751 156.95 205.751V205.501ZM155.78 205.259C155.433 205.096 155.16 204.863 154.958 204.56L154.75 204.698C154.978 205.041 155.287 205.304 155.673 205.485L155.78 205.259ZM154.958 204.56C154.759 204.258 154.656 203.889 154.656 203.447H154.406C154.406 203.929 154.518 204.348 154.75 204.698L154.958 204.56ZM154.656 203.447C154.656 203.056 154.733 202.753 154.876 202.526L154.665 202.392C154.489 202.671 154.406 203.026 154.406 203.447H154.656ZM154.877 202.526C155.025 202.289 155.223 202.104 155.472 201.969L155.353 201.749C155.066 201.904 154.836 202.119 154.665 202.393L154.877 202.526ZM155.472 201.969C155.729 201.83 156.013 201.727 156.326 201.658L156.272 201.414C155.939 201.487 155.632 201.599 155.353 201.749L155.472 201.969ZM156.326 201.658C156.649 201.585 156.973 201.527 157.298 201.485L157.266 201.237C156.933 201.28 156.601 201.339 156.271 201.414L156.326 201.658ZM157.298 201.485C157.728 201.429 158.077 201.388 158.343 201.36L158.317 201.112C158.048 201.139 157.698 201.181 157.266 201.237L157.298 201.485ZM158.344 201.36C158.619 201.329 158.837 201.276 158.983 201.192L158.859 200.975C158.759 201.033 158.583 201.081 158.316 201.112L158.344 201.36ZM158.982 201.193C159.157 201.095 159.235 200.924 159.235 200.714H158.985C158.985 200.856 158.938 200.931 158.86 200.975L158.982 201.193ZM159.235 200.714V200.677H158.985V200.714H159.235ZM159.235 200.677C159.235 200.199 159.104 199.81 158.825 199.528L158.647 199.703C158.868 199.926 158.985 200.245 158.985 200.677H159.235ZM158.826 199.528C158.548 199.243 158.135 199.112 157.615 199.112V199.362C158.097 199.362 158.433 199.483 158.647 199.703L158.826 199.528ZM157.615 199.112C157.077 199.112 156.639 199.229 156.315 199.48L156.467 199.678C156.734 199.472 157.111 199.362 157.615 199.362V199.112ZM156.315 199.48C156.008 199.716 155.785 199.974 155.655 200.255L155.881 200.361C155.991 200.125 156.183 199.897 156.467 199.678L156.315 199.48ZM155.81 200.19L154.776 199.821L154.692 200.056L155.726 200.426L155.81 200.19ZM154.849 199.988C155.027 199.573 155.261 199.256 155.549 199.031L155.396 198.834C155.068 199.089 154.81 199.443 154.619 199.889L154.849 199.988ZM155.55 199.031C155.847 198.798 156.171 198.636 156.52 198.545L156.457 198.304C156.073 198.403 155.719 198.581 155.395 198.834L155.55 199.031ZM156.52 198.545C156.88 198.449 157.232 198.402 157.578 198.402V198.152C157.209 198.152 156.835 198.203 156.456 198.304L156.52 198.545ZM157.578 198.402C157.796 198.402 158.049 198.428 158.339 198.483L158.385 198.237C158.085 198.181 157.815 198.152 157.578 198.152V198.402ZM158.341 198.483C158.623 198.532 158.897 198.636 159.161 198.795L159.29 198.58C159.001 198.407 158.699 198.292 158.384 198.237L158.341 198.483ZM159.162 198.795C159.42 198.948 159.637 199.181 159.813 199.5L160.032 199.38C159.839 199.028 159.592 198.76 159.289 198.58L159.162 198.795ZM159.813 199.5C159.984 199.811 160.075 200.237 160.075 200.788H160.325C160.325 200.213 160.231 199.74 160.032 199.38L159.813 199.5ZM160.075 200.788V205.46H160.325V200.788H160.075ZM160.2 205.335H159.11V205.585H160.2V205.335ZM159.235 205.46V204.5H158.985V205.46H159.235ZM159.11 204.375H159.055V204.625H159.11V204.375ZM158.942 204.446C158.876 204.583 158.763 204.737 158.596 204.906L158.775 205.081C158.953 204.9 159.086 204.724 159.168 204.554L158.942 204.446ZM158.596 204.906C158.438 205.067 158.223 205.208 157.948 205.327L158.047 205.556C158.344 205.428 158.588 205.271 158.775 205.081L158.596 204.906ZM157.948 205.327C157.682 205.441 157.35 205.501 156.95 205.501V205.751C157.374 205.751 157.741 205.688 158.047 205.556L157.948 205.327ZM157.116 204.772C157.563 204.772 157.949 204.685 158.268 204.502L158.143 204.285C157.871 204.441 157.531 204.522 157.116 204.522V204.772ZM158.267 204.502C158.583 204.323 158.825 204.089 158.988 203.799L158.771 203.677C158.632 203.922 158.425 204.125 158.144 204.285L158.267 204.502ZM158.988 203.8C159.152 203.515 159.235 203.212 159.235 202.893H158.985C158.985 203.166 158.915 203.426 158.771 203.676L158.988 203.8ZM159.235 202.893V201.896H158.985V202.893H159.235ZM159.014 201.816C159.007 201.825 158.987 201.842 158.944 201.864C158.902 201.885 158.845 201.907 158.77 201.928L158.841 202.168C158.924 202.144 158.996 202.117 159.055 202.088C159.114 202.058 159.168 202.022 159.206 201.976L159.014 201.816ZM158.772 201.928C158.623 201.97 158.449 202.007 158.25 202.041L158.291 202.287C158.497 202.253 158.68 202.213 158.839 202.169L158.772 201.928ZM158.251 202.04C158.052 202.071 157.858 202.098 157.668 202.123L157.7 202.371C157.892 202.346 158.088 202.318 158.289 202.287L158.251 202.04ZM157.67 202.123C157.481 202.144 157.328 202.163 157.21 202.178L157.243 202.426C157.359 202.411 157.511 202.393 157.698 202.371L157.67 202.123ZM157.211 202.178C156.92 202.216 156.647 202.278 156.393 202.364L156.473 202.601C156.71 202.521 156.967 202.462 157.243 202.426L157.211 202.178ZM156.394 202.364C156.133 202.449 155.917 202.581 155.75 202.762L155.934 202.932C156.068 202.787 156.246 202.676 156.472 202.601L156.394 202.364ZM155.75 202.762C155.576 202.951 155.495 203.203 155.495 203.503H155.745C155.745 203.248 155.813 203.063 155.934 202.932L155.75 202.762ZM155.495 203.503C155.495 203.917 155.651 204.244 155.969 204.464L156.111 204.258C155.869 204.091 155.745 203.845 155.745 203.503H155.495ZM155.97 204.465C156.279 204.673 156.664 204.772 157.116 204.772V204.522C156.7 204.522 156.368 204.431 156.11 204.258L155.97 204.465ZM163.278 196.005H163.403V195.88H163.278V196.005ZM163.278 205.46V205.585H163.403V205.46H163.278ZM162.188 205.46H162.063V205.585H162.188V205.46ZM162.188 196.005V195.88H162.063V196.005H162.188ZM163.153 196.005V205.46H163.403V196.005H163.153ZM163.278 205.335H162.188V205.585H163.278V205.335ZM162.313 205.46V196.005H162.063V205.46H162.313ZM162.188 196.13H163.278V195.88H162.188V196.13ZM166.478 205.155L166.412 205.262L166.413 205.262L166.478 205.155ZM165.338 203.881L165.225 203.936L165.226 203.936L165.338 203.881ZM165.338 200.049L165.225 199.995L165.225 199.996L165.338 200.049ZM166.455 198.748L166.523 198.852L166.524 198.852L166.455 198.748ZM169.23 198.461L169.27 198.343L169.27 198.343L169.23 198.461ZM170.213 199.062L170.127 199.153L170.128 199.153L170.213 199.062ZM170.919 200.151L171.036 200.106L171.036 200.106L170.919 200.151ZM171.182 202.284V202.409H171.307V202.284H171.182ZM165.716 202.284H165.591V202.409H165.716V202.284ZM165.716 201.342V201.217H165.591V201.342H165.716ZM170.074 201.342V201.467H170.199V201.342H170.074ZM169.834 200.271L169.723 200.327L169.723 200.328L169.834 200.271ZM169.16 199.528L169.094 199.634L169.094 199.634L169.16 199.528ZM167.009 199.579L167.079 199.682L167.079 199.682L167.009 199.579ZM166.284 200.41L166.172 200.354L166.172 200.354L166.284 200.41ZM166.307 203.498L166.195 203.554L166.196 203.555L166.307 203.498ZM167.088 204.343L167.025 204.451L167.025 204.451L167.088 204.343ZM169.022 204.509L169.063 204.627L169.064 204.627L169.022 204.509ZM169.627 204.14L169.713 204.23L169.714 204.229L169.627 204.14ZM170.019 203.521L170.053 203.401L169.942 203.37L169.902 203.477L170.019 203.521ZM171.072 203.817L171.191 203.854L171.229 203.731L171.105 203.696L171.072 203.817ZM170.513 204.758L170.602 204.846L170.603 204.845L170.513 204.758ZM169.544 205.386L169.588 205.503L169.589 205.503L169.544 205.386ZM168.246 205.483C167.582 205.483 167.016 205.336 166.543 205.049L166.413 205.262C166.932 205.578 167.544 205.733 168.246 205.733V205.483ZM166.544 205.049C166.072 204.757 165.708 204.351 165.45 203.826L165.226 203.936C165.503 204.501 165.899 204.944 166.412 205.262L166.544 205.049ZM165.45 203.827C165.195 203.299 165.066 202.681 165.066 201.97H164.816C164.816 202.711 164.951 203.368 165.225 203.936L165.45 203.827ZM165.066 201.97C165.066 201.259 165.195 200.638 165.451 200.103L165.225 199.996C164.951 200.569 164.816 201.228 164.816 201.97H165.066ZM165.451 200.104C165.709 199.565 166.067 199.15 166.523 198.852L166.387 198.643C165.889 198.967 165.502 199.419 165.225 199.995L165.451 200.104ZM166.524 198.852C166.981 198.553 167.517 198.402 168.135 198.402V198.152C167.474 198.152 166.889 198.314 166.387 198.643L166.524 198.852ZM168.135 198.402C168.491 198.402 168.842 198.461 169.189 198.58L169.27 198.343C168.897 198.216 168.519 198.152 168.135 198.152V198.402ZM169.189 198.58C169.531 198.697 169.844 198.887 170.127 199.153L170.298 198.97C169.991 198.682 169.648 198.472 169.27 198.343L169.189 198.58ZM170.128 199.153C170.407 199.412 170.633 199.758 170.803 200.196L171.036 200.106C170.855 199.639 170.61 199.259 170.298 198.97L170.128 199.153ZM170.803 200.196C170.971 200.63 171.057 201.171 171.057 201.822H171.307C171.307 201.15 171.218 200.577 171.036 200.106L170.803 200.196ZM171.057 201.822V202.284H171.307V201.822H171.057ZM171.182 202.159H165.716V202.409H171.182V202.159ZM165.841 202.284V201.342H165.591V202.284H165.841ZM165.716 201.467H170.074V201.217H165.716V201.467ZM170.199 201.342C170.199 200.925 170.116 200.548 169.946 200.214L169.723 200.328C169.873 200.622 169.949 200.959 169.949 201.342H170.199ZM169.946 200.215C169.779 199.881 169.539 199.616 169.226 199.422L169.094 199.634C169.367 199.803 169.576 200.033 169.723 200.327L169.946 200.215ZM169.227 199.422C168.915 199.226 168.549 199.13 168.135 199.13V199.38C168.51 199.38 168.827 199.466 169.094 199.634L169.227 199.422ZM168.135 199.13C167.68 199.13 167.279 199.244 166.939 199.475L167.079 199.682C167.373 199.482 167.723 199.38 168.135 199.38V199.13ZM166.939 199.475C166.607 199.7 166.351 199.993 166.172 200.354L166.396 200.465C166.556 200.143 166.783 199.882 167.079 199.682L166.939 199.475ZM166.172 200.354C165.994 200.713 165.905 201.099 165.905 201.508H166.155C166.155 201.136 166.236 200.789 166.396 200.465L166.172 200.354ZM165.905 201.508V202.136H166.155V201.508H165.905ZM165.905 202.136C165.905 202.686 166 203.16 166.195 203.554L166.419 203.442C166.245 203.092 166.155 202.658 166.155 202.136H165.905ZM166.196 203.555C166.394 203.944 166.67 204.244 167.025 204.451L167.151 204.235C166.84 204.054 166.597 203.791 166.419 203.441L166.196 203.555ZM167.025 204.451C167.379 204.654 167.788 204.754 168.246 204.754V204.504C167.825 204.504 167.461 204.413 167.15 204.234L167.025 204.451ZM168.246 204.754C168.544 204.754 168.817 204.712 169.063 204.627L168.981 204.391C168.765 204.466 168.521 204.504 168.246 204.504V204.754ZM169.064 204.627C169.313 204.538 169.531 204.406 169.713 204.23L169.54 204.05C169.384 204.2 169.198 204.314 168.98 204.391L169.064 204.627ZM169.714 204.229C169.898 204.049 170.038 203.826 170.136 203.565L169.902 203.477C169.815 203.708 169.694 203.898 169.539 204.05L169.714 204.229ZM169.985 203.641L171.038 203.937L171.105 203.696L170.053 203.401L169.985 203.641ZM170.952 203.779C170.847 204.118 170.671 204.415 170.423 204.671L170.603 204.845C170.878 204.56 171.074 204.229 171.191 203.854L170.952 203.779ZM170.424 204.671C170.176 204.925 169.868 205.125 169.498 205.27L169.589 205.503C169.989 205.346 170.327 205.127 170.602 204.846L170.424 204.671ZM169.499 205.269C169.13 205.411 168.714 205.483 168.246 205.483V205.733C168.739 205.733 169.187 205.657 169.588 205.503L169.499 205.269Z" fill="#646363"/>
<path d="M50.8 186.48H33.56L32.12 180.92H19.44L18 186.48H0.77002L12.44 142.01H39.12L50.8 186.48ZM29.17 169.74L25.78 156.85L22.39 169.74H29.17Z" fill="#009E60"/>
<path d="M98.0401 155.9H70.2501V158.4H86.9301V170.07H70.2501V186.47H53.5701V142H98.0401V155.9Z" fill="#009E60"/>
<path d="M145.57 164.24C145.598 167.257 144.965 170.244 143.716 172.991C142.467 175.738 140.632 178.178 138.34 180.14C133.854 184.219 128.008 186.479 121.945 186.479C115.882 186.479 110.036 184.219 105.55 180.14C103.28 178.159 101.46 175.716 100.213 172.973C98.966 170.231 98.3208 167.253 98.3208 164.24C98.3208 161.227 98.966 158.249 100.213 155.507C101.46 152.764 103.28 150.321 105.55 148.34C110.039 144.267 115.884 142.011 121.945 142.011C128.006 142.011 133.851 144.267 138.34 148.34C140.631 150.304 142.464 152.744 143.713 155.491C144.962 158.237 145.596 161.223 145.57 164.24ZM130.5 164.24C130.506 163.136 130.279 162.043 129.833 161.033C129.386 160.023 128.731 159.119 127.91 158.38C127.124 157.588 126.19 156.959 125.16 156.53C124.13 156.101 123.026 155.88 121.91 155.88C120.794 155.88 119.69 156.101 118.66 156.53C117.63 156.959 116.696 157.588 115.91 158.38C115.104 159.129 114.462 160.036 114.022 161.044C113.583 162.052 113.356 163.14 113.356 164.24C113.356 165.34 113.583 166.428 114.022 167.436C114.462 168.444 115.104 169.351 115.91 170.1C117.502 171.69 119.66 172.583 121.91 172.583C124.16 172.583 126.318 171.69 127.91 170.1C128.724 169.358 129.373 168.452 129.814 167.442C130.255 166.433 130.478 165.342 130.47 164.24" fill="#009E60"/>
<path d="M198.37 186.48H183.92C180.22 186.48 176.517 184.627 172.81 180.92L165.02 173.13V186.48H148.35V162.55H175.58C176.018 162.552 176.451 162.465 176.854 162.293C177.256 162.121 177.619 161.868 177.92 161.55C178.238 161.251 178.491 160.89 178.663 160.489C178.835 160.088 178.923 159.656 178.92 159.22C178.922 158.782 178.835 158.349 178.663 157.946C178.491 157.544 178.238 157.181 177.92 156.88C177.618 156.564 177.255 156.313 176.852 156.141C176.45 155.969 176.017 155.88 175.58 155.88H148.35V142.01H180.03C184.099 141.991 188.008 143.588 190.9 146.45C192.385 147.778 193.571 149.406 194.379 151.226C195.188 153.047 195.6 155.018 195.59 157.01C195.598 160 194.668 162.917 192.93 165.35C191.247 167.835 188.837 169.738 186.03 170.8C186.303 171.33 186.718 171.774 187.228 172.083C187.738 172.392 188.324 172.554 188.92 172.55H198.37V186.48Z" fill="#009E60"/>
</svg>
